<svg xmlns="http://www.w3.org/2000/svg" width="181" height="20" fill="none" viewBox="0 0 181 20"><path fill="#f8f1ea" d="M8.596 4.096c-.032.102.268.187.86.246.036-.102-.284-.189-.86-.246m30.25 2.406c-.003.069-.013.139-.018.207.34.027.692.051 1.03.078.336.026.732.082.74.002-.398-.03-.766-.041-1.027-.13-.262-.088-.063-.13-.724-.157m-.572-.2-.617.214-1.474-.218c.149.187.81.288 1.758.344q.166-.17.333-.34m-3.272-.099-.572.01.873.07.273.177.032-.31-.58-.047zm-2.323-.131c-.062.047.176.185.568.202q.01-.078.017-.155zm9.105.646c-.012.009-.006.018.007.028l-.597-.019c.4.17 1.273.2 2.03.277.464.048.563.057.877.008l-.734-.074-.125-.116c-.491-.043-.71-.005-1.03.031l.157-.093c-.194-.015-.386-.025-.579-.042zm-14.43-.936.297.026.011-.104-.297-.026zm131.402 9.033c.416-.116.807-.22 1.146-.33q.292-.093.542-.2c.413.05.913-.154 1.352-.244 1.219-.25 2.474-.534 3.463-.813.996-.283.836-.257 1.866-.511.732-.203 1.6-.405 2.795-.974-.149.07-.129.055-.117.051-.02-.027-.06-.037.074-.136h-.028l.023-.01c-.177.086-.1.049-.087.048l.122-.037c.074-.022.203-.062.287-.086l.624-.187c.099-.03.186-.09.258-.11.6-.168 1.112-.256 1.74-.482.394-.21.28-.277.957-.497-.079.083-.162.168-.237.25.433-.156.846-.36 1.267-.517.237-.088.47-.132.61-.184 1.193-.444 1.817-.804 2.592-1.394a5.5 5.5 0 0 0 1.151-.587c.132-.122.257-.25.399-.422.172-.216.323-.402.507-.845.179-.43.289-1.141.029-1.82-.269-.672-.607-.944-.909-1.176.35.252.797.584 1.047 1.465.212.855-.054 1.54-.236 1.906a2.65 2.65 0 0 0 .336-1.83 2.56 2.56 0 0 0-.83-1.469 2.7 2.7 0 0 0-.388-.292 3 3 0 0 0-.317-.176c-.228-.109-.365-.156-.53-.213-.471-.15-.481-.19-.898-.276-.978-.178-1.776-.21-2.641-.243a24 24 0 0 0-.517-.01q-.005.078-.008.156a22 22 0 0 0-.579-.052c-.2-.015-.337-.03-.514-.045l.144.154q-.5-.07-1.079-.13c-.215.112-.381.222-.571.334-.36-.014-.057-.175-.465-.216-.352-.034-.391.03-.778.046-.342.014-.343-.068-.878-.051a67 67 0 0 0-1.174.05c-.408.02-.836.046-1.13.072-.711.062-1.154.17-1.792.206-.817.046-1.508.087-2.401.147a9 9 0 0 0-1.104.204c-.28-.106-1.194 0-1.575-.02-.369-.02-.021-.123-.507-.121-.065.036-.191.08-.26.116-.216-.002-.042-.043-.397-.023-.35.02-1.54.113-1.917.156-.557.066-.462.14-1.067.156.007-.035-.007-.069-.009-.103l-1.31.067.003.104c-1.527-.139-2.811-.145-4.408.16-.433-.006-.762-.051-1.214-.037-1.142.035-2.624.192-3.729.262-.829.053-1.371.073-2.078.034-.231.095-.487.191-.73.286q-.002-.105-.002-.207c-.45-.014-.65.061-1.047.08-.387.018-.155-.073-.694-.066-.198.002-1.126.041-1.641.054-.904.022-1.977.039-2.991.055-.864.015-1.789.134-1.799.33-.002.03.376-.018.153.067-.35.133-1.136.298.705.247-.018.059-.008.105 0 .16.783-.134 1.629-.005.656.077-.364.03-1.735-.076-1.949-.142-.533-.166.366-.317.04-.507-.047-.029-1.562-.12-1.841-.12-.398 0-.402.045-.627.058-.401.024-.435-.042-.855-.026-.483.018-1.007.107-1.575.09.188.066.389.13.581.195-.973.025-.957-.157-1.618-.224l-.629.115-.715-.012c-.76.143-1.789.428.294.231.043.102-.078.176.055.284.09.073.401.11-.211.188-.043-.066-.103-.136-.148-.204-.873 0-1.044-.168-1.299-.29-.105-.049.371-.123.126-.154-.379-.049-.945.1-.837.167l-.295.006c-.004-.035-.002-.068-.008-.104-.587.038-1.066-.03-1.594-.028-.435.001-.48.06-.913.068-.812.016-.913-.068-1.891-.075-.412-.002-2.075.105-2.784.113-.182.002-.272-.047-.581-.029-.704.043-1.478.168-1.343.317-.151-.033-.288-.067-.433-.1.361-.07.747-.113.724-.214-.718.078-1.368-.013-2.154.018-.184.007-.518.122-.746.1-.009-.05.018-.105-.011-.154-.223-.03-.88.039-.968.04-.599.004-1.098.052-1.498.059s-.661-.094-.888-.088c-.674.018-1.028.13-1.484.199-.041-.034-.099-.07-.146-.104l-.861-.003c0 .035-.011.07-.008.104-.672-.087-1.048-.12-1.948-.111-.506.004-.736.056-1.15-.057-.212.03-.398.06-.591.09-1.404-.116-2.508.052-3.93.075l-.016.102-.59-.033c.199-.058.404-.117.597-.175-.463-.026-.9.03-1.306.035-.647.006-1.06-.055-1.638-.075q-.01.05-.023.1-.64.044-1.285.087l-1.166-.227-.623.09-.555-.061.139.211-1.61-.397-.608.248c-.249-.075-.487-.15-.725-.224l-1.147.028-.023.101-.717-.07c0 .036-.007.07-.002.105-.458-.07-.798-.136-1.457-.134-.364.002-1.698.012-1.968-.012-.86-.076-.83-.16-1.719-.148.006.033-.017.065-.024.098q-.934.053-1.876.103l.03-.104.416-.038c-.54-.052-1.091-.102-1.63-.156-1.003.055-1.82-.053-2.931-.04-.48.006-.918.114-1.594.032-.019-.032-.005-.068-.016-.102-.686-.043-1.717.006-2.325.038-.442.024-.348.075-.874-.01-.148.047-.307.092-.46.138l-.133-.214c-.718.043-1.1.011-1.62-.121l-.444.058c.422.093.25.131-.167.175-.252-.02-.16-.08-.289-.118-.516-.15-.787-.11-1.432-.132-1.044-.035-1.882-.1-2.928-.117-.197-.003-.45.041-.735.009-.015.053-.014.104-.022.156-.725-.09-1.204-.226-2.048-.261q-.012.05-.025.101l-1.16-.06v-.104l-.73.063-1.3-.174c-.1.147.554.104 1.01.214.189.046.259.125.42.177q-.726-.038-1.451-.079c-.1-.092-.168-.184-.286-.275-.35-.042-1.295-.02-1.554-.035-2.037-.12-3.716-.275-5.68-.348-.271-.01-.423-.08-.85-.103-.546-.028-1.498-.003-2.025.025-.302-.053-.574-.106-.864-.158l-1.226.068c-.57-.046-1.176-.142-1.731-.17-.69-.032-.94.02-1.587-.112l-.157.094c-.979-.174-1.966-.184-2.928-.162-.042-.055-.093-.113-.128-.166-.73-.09-.953.006-1.661-.034-.352-.02-.61-.125-1.168-.122-.355.002-.582.071-1.128-.044-.484.035-.331.143-1.087.075.093-.307-1.256-.187-1.44-.196-1.08-.05-1.437-.132-2.317-.167.009-.036.017-.068-.012-.104-.59-.093-1.68-.094-2.132-.129-1.197-.09-2.255-.184-3.21-.282-1.13-.117-1.467-.072-2.42-.12-.804-.04-1.477-.147-2.316-.198-.18-.01-.464.018-.73-.022-.02.034-.02.067-.035.1-1.05-.221-1.866-.267-3.014-.336-.656-.04-1.168-.091-1.846-.138-.263-.018-.439-.098-.795-.12-.27-.016-.66.004-1.029-.056a.3.3 0 0 0-.031.1C12.38.727 12.08.762 11.239.7c-.61-.046-.717-.091-1.563-.175C8.716.429 6.86.266 5.746.18 5.141.133 4.437.165 3.968.123S3.653.023 3.19 0c.23.163-.316.146-.56.232-.633.223-.694.559-.78.844-.02.072.375.126.289.171q-.436-.051-.88-.098c.094.09-.268.135-.332.192-.081.073.205.131.242.195l.008.002c.055.093-.155.102-.02.21.03.023-.04.067.038.097.502.2 1.361.24 1.462.089l.729.08-.014.103q.667.021 1.33.04l-.6.067q.212.088.423.177c.475.004.933.074 1.446.095.51.02.521-.055 1.168.079.305.006.631-.068.896-.055.815.038.095.198.129.27l-1.446-.206-.026.154c-.42-.036-1.19-.02-1.458-.133q.007-.038.013-.074L4.954 2.5l-.299.1-.891-.072-.031.205c-.536-.053-.986-.013-1.47-.135L3.45 2.57c.082-.16-.311-.314-.969-.5-.419.032-.837.017-.735.156.037.05.505.212.47.258-.067.089-.663.063-.557.178l1.744.247c.24.078.486.156.72.234.206-.05-.407-.156-.552-.218-.175-.074.231-.071.155-.14.616.056.933.124 1.304.247.42-.005.369-.062.472-.129.072-.047.565.031.725-.005.166.087-.265.073-.12.173.084.057.654.17.513.236.93.106 1.452.017 2.345.09q-.443.02-.886.039l1.613.091c.594.177.2.253 1.304.343l-.614.146c.744.117 1.32.066 1.936.103 1.071.065 1.381.134 1.905-.003-.28-.123-.553-.246-.83-.37l.883.12c.055.155.713.103 1.02.07l-.274-.185c.789.203 1.1.331.978.513q.282.03.563.058l-.005.155 1.16.112-.257-.103.42-.039.566.153.75.025c-.233.103-.023.237-.043.362.547.057 1.095.095 1.633.152.366.038.48.104.893.137.501.04 1.025.01 1.598.093-.032-.074-.42-.116-.777-.17s-.463-.062-.375-.144a15 15 0 0 1-1.463-.135c.02.1-.048.11-.612.047.167-.058-.183-.135-.187-.2-.004-.064.342-.05.202-.137-.062-.038-.658-.153-.546-.184l1.035.148.124.17c1.053.07 1.53.264 2.477.384l.305-.077.118.272c.907.085 1.879.214 2.06.027l-1.172-.052-.27-.233q-1.455-.156-2.924-.319l.33-.283-1.467-.189-.023.155c-.937-.054-1.885-.11-2.798-.165l-.705-.221 1.17.034c-.4-.127-.841-.165-1.444-.218.442-.095-.235-.266.48-.32l-.171.193.863.086.016.1c.695.063.581.112.541.213.416.05.662.068.598-.022-.038-.053-.344-.12-.134-.144.398.134.687.06 1.138.113.327.039.35.114.648.155.533.074 1.064.128 1.592.205-.033-.077.146-.12-.31-.212-.264-.054-.601-.02-.838-.13l.738-.005 1.018.194-.313.129 1.167.158c.015-.104-.107-.213.324-.26l-.578-.103 2.343.131q-.882.014-1.77.025l.277.156c.794.086.331-.063.887-.025v.104l1.153.102-.454.065c-.966-.165-1.347-.15-2.058-.081l-1.3-.169c-.112.077-.211.155-.33.231.312.044.474-.04.817-.027.159.007.71.076.954.083-.036-.036-.046-.1.157-.088.263.015.695.018.855.036.477.051.573.114 1.047.131.115-.155.976-.087 1.622-.118.077.052-.081.128-.318.126-.335-.003-.398-.056-.751-.032-.355.024-.646.147-1.15.154.664.105 1.344.207 2.01.309.126-.146.797-.143 1.61-.022.609-.015 1.912.101 2.233.006.048-.014-.226-.037-.175-.071.018-.013.206-.132.522-.08.288.116.566.238.851.356-.247.027-.464-.103-.588-.045-.067.032.142.093-.04.127.358.023.597.048.908.071l-.75.096-.146-.012c-.013-.051.046-.104-.014-.155-.07.013-.824.003-.81.062.005.02.218.039.145.067-.123.048-.836.066-.058.172.287.04.669.01.72-.042-.186-.034-.385-.067-.577-.1 1.427.125 2.162.034 3.105-.062.294.066.406.13.565.202.217.099.105.13.715.16.001-.055.163-.162-.134-.214-.413-.073-.785-.19-1.108-.235s-.26.038-.59-.013c-.265-.042-.394-.094-.75-.11l.269-.056-.408-.112-1.01-.108c.29-.025.968.04 1.271.082.301.042.474.154.761.161.196-.053-.228-.143-.202-.196.037-.075.575-.029.483-.129.196.072.373.14.561.21l-.254.163.882-.035-.597.11c.702.04 1.335.153 2.031.16q.143.077.284.155l1.48.24-.857-.25c-.07-.14-.014-.106.594-.087.018 0 .016-.041.15-.03.135.01.123.05.142.053.2.03.394.027.593.048l-.59.138c.312.102.193.155.832.198l.03.098 1.148.194.758-.206.71.287-.598.087c.193.015.387.026.58.042h.006c.135-.068.245-.116.02-.207l.568.198c.412.034.637.06.578-.033l.886.032-.863-.114c-.078-.171-.51-.3.307-.37l-.548-.22-.742.103-.57-.198c-.417.041-.367.145-1.037.082l.125.217-.734-.054.311-.209-1.151-.298 1.454.238c-.017-.061-.032-.195.487-.164.198.012.413.082.698.04.008.057-.008.105-.007.158l.868.062.01-.073.585.064q-.208-.12-.417-.239l-.598.114-.132-.166-.885-.012c.153-.064-.165-.129-.197-.196-.02-.045.23-.041.237-.089.01-.072-.003-.159.014-.233l1.464.053c.057-.09-.01-.151-.427-.24l-.846-.01-.748-.158c-.105.096-.22.193-.321.29-.725-.094-.544-.203-.907-.327-.066-.022-.637-.047-.672-.105-.174.022-.306.046-.465.07l.874.17-1.038-.027-.434-.188c-.785-.078-1.576-.157-2.338-.235l.574.098-.311.184c-.233-.053-.485-.108-.708-.16-.458-.005-.212.084-.514.11-.303.027-1.064-.038-1.404-.002L31.95 4.6l.595-.057q-.133-.116-.271-.23c.266.015.541.116.767.16.226.046.738.155.969.11-.935-.276-1.805-.379-3.061-.328l.017-.155-.765.171 1.451.33c-.366.008-.16.154-.758.063-.307-.047-.8-.257-1.112-.286-.658-.061-1.066-.058-1.668-.101.469-.046.92-.096 1.382-.144l-.156-.115c1.68.07.431-.252-.265-.286-.253.065-.517.13-.763.196-.572-.12-.33-.124-.168-.197.266-.119-.786-.102-1.129-.124-.015.052-.017.103-.026.155q-.575-.075-1.154-.154l.593-.052c-1.173-.09-1.978-.273-2-.491l.705.272q.232-.11.462-.22l-.567-.155.863.16.525.197-.265.108.855.127.025-.101c.664.075 1.368.152 2.048.227q.008-.078.018-.155l-.594.002-.431-.194q-.083.045-.168.089l-1.16-.1c.346-.207 1.174-.11 2.215.081l.6-.045 1.02.187-.144-.117 1.041.035-.312.182.562.051q.009.05.021.1c.64.043.94.127 1.44.225l-.27-.231c-.56-.034-.769.004-1.166-.122l.466-.04-.15-.169.867.175q.158-.09.314-.183c.29.023.586.046.87.07.008.086-.789-.035-.576.08.213.116.464.087.837.099.009.033.008.068.013.103l.863.07c-.413.08-.838.085-.171.248.352-.032.577-.05.75-.128.042-.018.245-.104.227-.132-.055-.082-.334-.132-.2-.202q.142.064.288.126c.386.025.66.104 1.014.135.264.023.368-.011.605.006.237.016.26.073.566.075.374.003.536-.079 1.056-.02-.197.063-.403.126-.605.187l.28.154.878.066-.168.197 1.038-.054c-.2-.07-.424-.12-.506-.198-.115-.11-.05-.241.261-.315l-.584-.046.012-.154 1.176.034-.323.29c.565-.02.682.054 1.163.137l.016-.103.717.103c-.041-.038-.102-.076-.13-.113.403.052.966.01 1.265.04.6.061.343.178.466.228.123.049.24.018.39.042 1.045.164 2.025.33 2.967.51l.464-.18c.224.076.624.044.845.121s.101.219.74.296c-.05-.07-.087-.145-.132-.216l1.008.221 1.462-.012c-.047.031-.11.063-.147.094.447.055.736-.032 1.01-.033.6-.003 1.014.12 1.433.125.555.006.481-.093 1.104-.033-.015.05-.01.103-.019.154l1.475.033.003-.052.583.033.025-.26.284.121.88-.029-.57-.136c.008-.06.444.02.564.001.252-.04-.238-.152-.11-.21l1.44.234.432.024.017-.156 1.179.01-.602.047c.027.095.199.176.282.278.04.048-.005.113.445.097.178-.007.348-.074.59-.06.386.02.65.049 1.025.037q.016-.049.03-.097l.887.017.294-.118.868.095q.007-.052.018-.103c.71.022 1.096.075 1.156.21l2.321.16-.269-.43.882.092q-.004.078-.004.156c.5.03.705-.015 1.043-.056l1.024.17-.886-.011-.016.155h-1.313l-.78.222.74.085q.081-.1.164-.201l1.175.052.004.103.59.025.015-.104 1.019.095.401-.22-.24-.137-.575-.051c.602-.105 1.363-.078 2.202-.094.646.125.13.187.13.318l.702-.024.6.125c.336-.04.688-.077 1.038-.118.338.273 1.617.228 2.778.315.47.035.598.175 1.183.186.15-.062.3-.13.449-.193-.615.015-1.127-.028-1.752-.058l-.007-.155-.578-.022c-.198-.111.678-.189 1.188-.168-.094.124.618.214.275.322l1.177-.118.843.547q.222-.124.44-.25c.581-.05 1.195-.1 1.798-.153.001-.052-.003-.105.001-.157.388.082.868.147.71.254-.14.093-.834.027-1.124.055-.286.028-.087.104-.462.128h.003l-.006.001.547.126q.458-.09.913-.183l1.023.08.304-.201-.59.01q.003-.064.007-.13c.663-.018 1.11-.007 1.763.046l-.6.298 1.177-.127-.015.312.604-.271-.006-.079c-.851-.016-.63-.095-.128-.16l1.293.082-.294.124c.29.05.569.1.865.15.743-.068.664-.233 1.498-.282.098.095-.877.163-.572.244.18.047.627-.054.856-.003-.288.02-.153.115-.475.118-.552.004-.791-.038-.717.091.61.027.772-.066 1.195-.105.303-.028.56.05.883.042l-.588-.063.31-.307 2.047.09c.119.067-.224.077-.255.133-.054.096.394.136-.051.225.397-.01.781-.022 1.171-.033l-.244-.081.246-.072-.576-.013q0-.078.004-.155l.871.014-.008.208 1.76-.027-.16.1c.385.226-.012.332-1.324.296l.584-.148-.72-.063c-.405.053-.486.11-.447.201l-.87-.013-.012.103-1.167.032 1.75.083-.003.156c.542.019.602.005.605-.09l.562.002-.29-.107q.72.024 1.47.047c-.41.084-1.224.09-1.196.217-.886.006-1.311-.062-1.882-.185l-.282-.005c-.433.062-.695.144-1.334.132.091-.051.218-.098.286-.152-.631 0-1.647-.204-2.13-.19-.983.03-.043.25-.247.35-1.032.029-.974-.165-1.591-.23-.51-.056-1.004-.02-1.448-.042-.32-.014-.387-.06-.624-.063-1.126-.019-1.912.15-3.081.118l.902-.182-1.477.013q-.016.05-.027.099l-1.449-.042q.002-.078.007-.156l-.296.096c-.511-.073-.8-.146-1.453-.15l.885-.129-1.16.017-.037.097-1.314.116c-.05-.036-.093-.073-.148-.109-.318-.03-.528.018-.763.02-.377.001-.48-.077-.835-.072-.266.004-.419.047-.759.023-.01.033-.016.068-.028.099-.329.017-.472-.061-.713-.065-.588-.009-.896.082-1.547.036.073.038.148.073.216.11-.282-.02-.75.006-.863-.068s-.059-.082-.568-.097q-.008-.05-.022-.101a16 16 0 0 0-1.596-.013c-.334.015-.14.097-.177.147.495.022.983.041 1.474.062.023.177-.948.201-.91.379l.884.01c-.105.04-.194.08-.31.118-.236-.067-.876-.108-1.115-.153-.238-.045.032-.082-.067-.127-.054-.024-.215-.047-.238-.073-.05-.06.295-.067.244-.135-.023-.03-.25-.072-.263-.121-.02-.066.037-.16.025-.232-.412-.031-.651.025-1.042.008-.39-.017-.62-.094-1.038-.099l.584.157q-.3.052-.601.102c-.005-.049.137-.12-.14-.16-.158-.023-.434-.066-.555-.069-.469-.01-.702.037-1.185-.013l-.284-.118c-.146.046-.307.09-.443.137.34-.005 1.223.14.813.188-.309.035-.87-.137-1.265-.062l-1.312-.212c-.109.038.18.156.3.188.405.11.914.11.847.233l-1.465-.125-.015.156-.885-.045c.023.036.15.085.312.12.026.005.282.013.271.04-.013.028-.256.008-.272.012-.118.028.01.07-.033.103l-.146-.007c-.04-.037-.105-.072-.128-.111l.29.014h.002l.003-.052-.296.037c-.83-.126.073-.207.206-.266s-.215-.076-.214-.122c.001-.073.545-.15.29-.218-.19-.05-.816-.022-.697.07.118.093-.172.208-.757.215-.102-.091.846-.124.292-.214-.44-.072-.972-.006-1.463-.055-.014-.103-.272-.175-.863-.202.457.185.144.337-.902.316l.282.172-2.046-.008-.31.085-.28-.172 2.05.062.325-.398-.577-.085 1.165.012a11 11 0 0 0-2.021-.09c-.69.032-.398.004-1.076-.032-.364-.02-.847.028-1.296-.022-.06.15.224.293.55.45-.244.003-.497.004-.739.01-.35-.07-.042-.107-.198-.2a6 6 0 0 0-.669-.219 13.4 13.4 0 0 0-1.895-.219c-.013.034-.013.069-.023.103-.511-.094-1.01-.104-1.59-.15-.37-.03-.471-.092-.89-.111-.699-.033-1.178.02-1.883-.123.185.065.382.13.571.195a10 10 0 0 0-1.34-.04c-.1.003-.16.003-.266 0q-.077-.064-.156-.13-1.034-.095-2.072-.194c.172.127.745.309-.313.24l.309-.188q-.715-.075-1.434-.154l-.292-.124c.043.055.1.113.133.166-.16.046-.53-.016-.69.01-.339.056-.182.148-.943.084.32.087.05.071.067.134.017.062.802.234 1.08.182-.176-.057-.385-.114-.562-.172.314.032.893.085 1.131.132-.05-.007-.3-.13-.49-.159.12.012.256.03.38.044.099-.008.194-.017.296-.024.411.087.702.253-.186.139.238.047.168.108.463.136.653.06.962-.006 1.593.115-.078-.05.3-.158.587-.114s.36.098.61.143l-.764.157-.733-.155-.167.197c-.196-.048-.382-.096-.573-.144l-.445.047c.603.194-.698.414.43.567.127.017.523-.023.673.086-.082.05-.217.105-.314.157l-.567-.036.422.185c.45-.125.919-.25 1.376-.375l.282.176c.685.049 1.146.008 1.774.12l.026-.26c.319.032.466.005.737.008.113.001.19.047.28.048.496.007.846-.027 1.195-.068l.123.268.885-.048.537.557.31-.086c.602.108.98 0 1.602.098.236-.035-.269-.123-.416-.155-.23-.05-.397-.018-.578-.072-.181-.055-.186-.156-.585-.21q.278-.061.555-.121l-.242-.146c.429.075.693.05 1.174.072-.06.094.023.172.577.243.195-.136.716-.218.63-.378.31.108.702.27.992.365s.473.123.74.206c-.198-.014-.39-.022-.587-.034-.062.14.194.287-.038.414.594-.012.465-.147 1.191-.088l-.305.086 1.169.171c.036-.104.15-.157-.574-.19l.306-.138-.73-.091-.743.059c.117-.135.736-.197.589-.355-.034-.037-.677-.129-.544-.164 1.111.054 1.412.217 1.441.395l.877.049q-.068-.055-.138-.111c-.282.045-.578.033-.43-.053.054-.031.241-.107.318-.128.254-.067.545-.095 1.013-.084l-.435.03c-.234.196-.67.267.843.358l-.014.156q-.432-.075-.865-.153c-.139.193.725.218 1.3.394.08.024-.03.159.118.203.407.015.7-.094 1.025-.092.758.005 1.224.123 1.938.144.07-.145-.552-.13-1.18-.164-.094-.126-.177-.253-.279-.378-.32-.018-1.12-.047-1.112-.144.002-.053.392-.089-.049-.179l1.19.062.132.216 1.342-.036-.608.178.885.046.578.237c-.247-.206-.777-.36.03-.495l-1.014-.232c-.546.044-1.633.113-1.63-.086.598.096 1.032-.003 1.621.032.99.06.634.019 1.625.035.277.005 1.563.162 1.897.033.198.046.297.083.457.126l-1.46-.016-.02.155-.435-.067-.45.128c.542.04 1.115.085 1.648.123s1.037.071 1.555.107c-.318.068-.841.048-1.3.02-.384-.024-1.014-.216-1.278-.158-.379.084 1.081.282.51.379.307.017.59.028.885.043-.091-.04-.198-.079-.28-.118.543.022 1.535.043 1.863-.014.375-.066-.01-.09.245-.18.214-.075.946-.196 1.298-.275-.044.065-.106.134-.158.2l.59.078c-.3-.03-.583-.06-.895-.09-.011.091-.682.182.222.265.247.023 1.393-.03 1.82.03.05-.033.024-.066.044-.1l1.463.06c.09-.042-.438-.106-.514-.153-.03-.019.203-.02.16-.046-.131-.077-.607-.112-.502-.202l.864.296.886-.068-.296.166.276.146.871-.019.012.104c.45.012.933.1 1.297.051l-.15.121c.625.13 1.587.314 1.48.032l.736.13-.137-.213.893-.021c.018.073-.005.14-.163.203-.22.087-.727.128-.752.234.79.033 1.057-.115 1.648-.144.413-.02.662.038 1.033-.001.308-.033.368-.127.728-.158.542.027.702.085.72.178h.01-.002c.192.004.382.014.573.018l.015-.155 1.167-.019c.067-.096-.04-.112-.582-.121q.15-.126.303-.25l1.193.033-.585-.225c.397.046.789.094 1.186.137-.026-.102-.112-.258.45-.294s.373.057.458.108c.289.01.585.017.875.026.085.125-.354.168-.638.265l.024.189.607-.14.565.012.018-.155 1.447.142.43.32.159-.204c.196-.003.38.02.579.008.018-.001.01-.043.144-.04.134.004.12.043.144.047.152.02.261-.003.415.018.484.066.727.133 1.37.126-.147-.052-.243-.065-.59-.063l.308-.255-.896.034c.256-.066.134-.102.01-.18.325-.069.667-.072 1.18-.06q.012-.05.026-.1l.878.017c-.003.052-.002.103-.008.156-.865-.114-1.586 0-.725.086.352.036.749-.005 1.152.033.347.033.544.123 1.032.116-.096.086-.2.17-.301.254l-.882-.015c0-.035.005-.07.004-.104-.196-.001-.393-.009-.59-.011l.581.142-.578.145.712.195c.449-.102.997-.064 1.626-.102l.258-.048-.23-.056c.303-.073.64-.076 1.14-.06-.028-.158-.198-.238-1.033-.33-.18-.02-.816-.042-.549-.112l1.119.066q.239-.02.476-.04c-.094.058.004.248.58.155.06-.01.092-.14.44-.138.252.032.497.076.744.112l.367-.059c.297.082.323.128-.073.194l.689-.012 1.378.114q-.736-.007-1.477-.017l.584.216-1.48-.174q.294.12.586.243.447-.008.892-.017-.595.098-1.195.195.896-.04 1.782-.084l1.045-.354 1.016.06.3-.258-1.458-.013c.019.105.13.172-.594.15.477-.147-.123-.24-.575-.371l1.465.12.005-.157c-.599-.022-.896-.075-1.469-.015.007-.036-.007-.068.012-.106.236.032.597-.037.704-.034.515.016 1.033.162 1.437.156.96-.013.106-.257.215-.29a.83.83 0 0 1 .699.092c.16.106.026.172.729.164l-1.164.096 2.057.014c-.323.11-.783.162-1.479.147.041.132-.117.235-.594.334l.864-.02c-.024-.09.004-.15.453-.2l.305.047.151-.101q.593.095 1.181.188c-.793.09-.337-.11-1.04-.078-.447.02-.501.128-.456.199q.3.03.598.057a20 20 0 0 1-2.64-.02c-.008.085.491.047.732.114.217.06.14.164.555.206.887.048.123-.127.193-.14.528-.097 1.293-.132 1.904-.209.004.054-.003.105-.003.158.201-.032.388-.06.597-.094.322.083.593 0 .863.008.59.016.432.175 1.047.198.044-.067.099-.139.147-.207.336.033-.109.108.436.078.279-.016.562-.034.869-.024.038-.153-.211-.298.447-.417.436.044.894.087 1.338.13h-.896l.234.053c-.499.089-.603.165-.546.286h1.19c.006.035.003.07.012.102.416.029.729-.035 1.054-.046.441-.016.583.059 1.014.04.026-.103.139-.164-.572-.155l-.304-.309c.781-.003 2.027.107 2.054.254l.437-.052c.192.05.378.1.576.15.396-.067.526-.1-.034-.153-.643-.059-1.144-.037-.973-.206 1.217-.01 1.239.239 2.442.236.923-.003 1.012.06 1.898.089.46.015 1.383.018 1.957-.025.578-.042.841-.15 1.623-.116l.608-.27-.593.008-.003-.207c-.247.036-.504.071-.744.107-.527-.06-1.001.028-1.597.027.109.102.7.043 1.018-.008l.718.143q-1.076.04-2.166.078l-.74-.252 1.309-.014.446-.162-1.755.124.004-.26c.713-.009 1.351.023 2.042-.024l.43.255c1.011-.073.657-.148.151-.262.368-.029 1.125.05 1.324.08.202.032.062.088.173.1.607.065 1.357.003 1.907.08l-.438-.252-1.48-.003c.055-.138.921-.106 1.337-.047q.072-.054.145-.107c.238-.005.454-.026.582.017.055.019.236.083.229.095-.094.122-.23.133.35.212l-.287.13.872.037-.288-.152 1.155.057-.576-.015.286.307c.284-.032.582-.064.884-.096-.198-.013-.407-.026-.594-.04.387-.077.793-.154 1.187-.232l-.291-.124-.601.064q0-.078.002-.156a19 19 0 0 1 2.376-.05l.004.156.724-.07.446.068-.584.066 1.309.1.148-.109c.285.011.554.023.858.033.205.08.413.161.613.242.87-.078.134-.112.332-.217.028-.014.648-.034.555.016.019.024.002.048.008.072l.591-.017.009-.103 1.74-.053c-.231.058-.476.115-.703.174h.009-.001c.317.005.838.02 1.095.02.261.001.253-.011.472-.013-.114-.04-.196-.08-.296-.12.378-.088.99-.094.892-.213.319.002.644.05.896.075q.074-.029.149-.056c.131-.009.121.042.144.043.751.048 1.413-.062 2.185-.072q.147-.06.292-.116l-.141.213.883-.032c-.084-.157.143-.285.596-.44l-1.197-.007a10 10 0 0 1 .291-.167l1.205-.098c.053.059.279.11.292.171s-.252.142-.442.199c-.331.098-.557.094.005.157l1.326-.26.013.154.561-.02c.002.051.013.104.009.153.549-.023.371-.12.611-.172.244-.052.593-.02.976-.055.187-.018.286-.067.65-.073.559-.01 1.548.119 2.166.06.141-.13-.601-.212-.297-.327l-.575-.05c-.594.035-.13.134.031.171.162.037.586.064.558.115-.971.038-1.834.015-1.772-.183l-1.199.104c.091-.091.193-.183.294-.274.423-.018.731.033 1.052-.045.235.029-.445.17.321.087.1-.011.67-.134.688-.154.133-.135-.953-.049-.862-.2.464-.027.154.065.471.083.434.024.79.06 1.282.049l.01.207.573-.053-.288-.168.548-.03c.014-.034.008-.066.033-.1.649-.03 1.714-.122 2.032-.02.323.103-1.025.116-1.319.187l-.718.04-.289.143.288.17c.193-.062.403-.124.602-.186l.598-.001.146-.19c.195.042.403.085.589.127.43-.054.238-.112.486-.173.25-.061 1.047-.118 1.38-.127.021.034.02.066.034.099l.566-.023c.152.095.165.213.918.16l.145-.165.73-.09-1.178-.095c.506 0 .941.056 1.351.077.537.027 1.033-.019.982.113.485 0 1.25-.145 1.652-.186.403-.04.641-.032 1.004-.063a7.7 7.7 0 0 0-1.45-.027l-.032-.096c-1.178.024-.995-.163.162-.218.247-.012.221.092.432.105q.443-.01.874-.023c.079.087.322.148.297.244.301-.024.594-.06.89-.102l.013.154c.608-.028.877.003.894.108l1.143-.117-.237-.116c.267-.163.522-.325.821-.49.555-.042.876-.13 1.331-.079l.28-.222c.449.053.483.057.135.177-.287.098-.657.243-1.138.324-.29.048-.401-.027-.613.035q.156.055.309.112l.753-.144c.698-.053.884.05 1.583.013q-.004-.035-.007-.071l.905-.083-.292.173.872-.047c-.003.069.009.14 0 .208.498-.011.105-.132.444-.124.682.012 1.537-.046 2.022.048.443-.115.85-.125 1.452-.169.444-.034 1.33-.089 1.711-.092.413-.004.749-.004 1.025.002.965.025 2.058.073 2.636.289.036.009.042.046-.072-.08a.72.72 0 0 1-.109-.699c.117-.2-.033.018-.172.1-.305.225-.692.452-.865.637-.23.24.533-.227.506-.115-.732.437-1.041.716-1.996 1.074q.532-.238 1.042-.492a7 7 0 0 1-.335-.08c-.371.155-.545.265-.914.432-.227.102-.511.18-.793.308-.328.148-.451.292-.933.439-.016-.03-.025-.065-.039-.096a65 65 0 0 1-.948.38c-.143.018-.487.104-.287-.01.477-.268 1.273-.341 1.188-.52-1.041.368-2.1.712-3.176 1.062-.478.23-.425.302-.362.393-.104 0-.198-.01-.365.022a1 1 0 0 0-.119.047c-.552.199-1.287.565-1.777.727-.526.167-.537.06-1.038.234.123.037.218.088.333.13l-.851.077c.07-.062.158-.128.228-.19-.2.045-.503.126-.67.169-.673.17-.881.25-1.503.45-.177.057-.712.186-.921.27.02-.137-.283-.145-.913-.06l.04.204c-.582.096-1.156.188-1.738.282.189-.006.398-.017.591-.024l-.391.3q.058-.093.115-.186a412 412 0 0 1-2.294.505q-.015-.076-.029-.153l-.86.188c.278.019.061.114.038.204l.712-.203.736-.033-.549.253 1.14-.303-.559.177q.01.078.023.154c-.797.174-1.461.199-2.154.47l.085-.338c-.707.137-.946.255-1.413.44-.335.133-.584.232-.848.18-.286-.055.353-.09.554-.169-.369.026-.223-.07-.472-.087-.277-.018-.584.053-.017-.154.531-.044 1.076-.091 1.613-.137.009-.108.105-.19-.59-.033l-.041-.15-1.426.31c.007.034-.003.072.014.102-.616.156-.51.04-1.098.138-.309.052-.91.132-1.408.26-.493.129-1.096.395-1.811.478.187.018.401.022.597.034l-1.046.12-.974.26.269-.164-1.149.247.325.144-.447.045q.012.049.024.099l-1.284.277-.002.103-.697.203c-.704.023-1.587.234-2.471.374l.414-.25.717-.1-.028-.154q-.363.053-.727.107l-.555.219-1.602.242.163.072-.428.092-.169-.071c-1.324.273-2.534.644-3.738.763-.888.34-1.772.465-2.922.74-.195.047-.406.07-.611.116a2 2 0 0 0-.331.103c-.027-.03-.028-.065-.046-.097-.46.156-.805.234-1.449.567q-.072.029-.148.07a1.105 1.105 0 0 0-.383.35c-.051.084-.105.155-.154.375-.111.408.212.893.286.937.246.24.398.271.47.31.085.037.182.066.233.082.238.069.403.09.587.106.338.027.668.008 1.143-.014.551-.027.902-.062 1.503-.08.274-.01.004.165.699.096.018-.066.007-.139.013-.207.464.05.69.035.888-.058-.598.012-.96.029-.883-.098-.194 0-.384-.001-.579-.003-.085-.098-.384-.135.144-.206.834.036 1.668.061 2.502.087.124-.127-.981-.232-1.17-.353.756-.015.942-.093.89-.217.335-.016.511.008.723.044.42.074.338.163 1.033.151-.06-.052-.095-.102-.156-.155.379-.063-.012-.127-.06-.179-.045-.052.314-.05.388-.08.102-.042.141-.07.224-.086a1 1 0 0 1 .175-.013c.116.011.108-.031.471.06a.44.44 0 0 1 .236-.167c-.358-.184-.348-.102-.409-.122a2 2 0 0 0-.148.001c-.071.004-.178.01-.241.017.045-.051.115-.101.171-.15a24 24 0 0 0-2.249-.054c-.214.003-.455.04-.572.045-1.072.04-1.34.011-2.449-.026-.215-.008-.893.06-1.36.009-.152-.018-.261-.094-.612-.136-.097-.012-.241-.025-.352-.04l-.142-.021c-.001.004-.023-.012.069.04.045.03.112.066.212.2.156.165.182.644.074.8-.147.274-.234.268-.232.277-.014.006-.001-.004.021-.016.032-.018.103-.05.173-.076.116-.046.295-.1.407-.13.259-.07.493-.11.791-.162q.305-.051.616-.114-.007-.051-.018-.102l1.457-.172 1.85-.45-.006-.104c.52-.067.782-.173 1.289-.281.513-.11.889-.11 1.44-.258q.273-.139.548-.278c-.031.077-.08.16-.099.234.405-.053.942-.243 1.25-.308.928-.197 1.645-.265 2.469-.521.328-.102.705-.317.953-.382 1.013-.268 1.127-.147 1.768-.235.372-.052.337-.108.566-.155 1.198-.246 2.308-.368 3.475-.603 1.168-.236 2.319-.64 3.397-.888.858-.197 1.138-.152 1.898-.414.002.036.017.067.031.1.389-.085.91-.193 1.276-.276.256-.058.398-.13.562-.166.506-.11.97-.101 1.427-.226l.026-.007c.54-.15.602-.266 1.278-.383-.009-.025-.006-.048-.01-.073l.447-.08.262-.163.458.057-.848.244q.563-.11 1.144-.229c.279-.074.571-.15.852-.226l.002-.103.842-.196c-.019.135.31.04.893-.104.191-.081.367-.16.555-.241-.084.074-.176.15-.256.223q.444-.053.887-.11c.319-.15.643-.305.964-.463l-.107.19c.325-.066.452-.156.705-.23.252-.076.334-.055.615-.14a7 7 0 0 0 1.099-.422c-.074.034.004 0 .025-.007l.13-.046q-.011-.05-.026-.1l.266-.09c.011.033.029.063.037.097a26 26 0 0 0 2.086-.634c2.205-.833 4.292-1.24 6.497-2.944.131-.1.227-.173.377-.343a1.541 1.541 0 0 0 .378-.763c.1-.388-.123-.98-.33-1.182-.249-.275-.399-.35-.581-.452-.624-.31-1.123-.371-1.612-.44.234-.021.431-.044.706-.04a10 10 0 0 0-1.32-.131c-.161.038-.356.076-.501.12a10 10 0 0 0-.425-.337 4 4 0 0 0-.388.032c-.24.046-.085.112-.006.19.031.025.053.051.049.078l-.051-.002c-.316-.01-.7-.013-1.132-.009-.34.003-.7.01-1.051.02-.295.008-.47.06-.596.061-.638.007-1.19-.085-1.8.03-.272-.038-.569-.073-.86-.109-.297.056-.438.115-.775.172-.381.065-.65.05-.568.157l-1.159.117-.015-.154-.59.03-.016-.154c-.3.034-.563.066-.852.1-.068-.119-.866-.203-.881-.003l.59-.007-.582.06-.002.155c-.595.07-1.247-.046-1.203-.14l-.707.142c-.827-.032-1.132-.074-1.036-.253l-.893.106-.031.099-.978.162-.438-.132.556-.034.455-.177 1.918-.109c-.262.167-.265.223.444.288l.135-.32c.345.05.64.102 1.016.15l-.16-.094c.832-.053 1.355-.158 2.076-.118-.061-.155-.026-.259.717-.405q.541.022 1.054.046l-.896.101c.004.122.004.243.01.365.743-.072 1.459-.108 2.16-.174.258-.024.31-.075.482-.098.494-.069.662-.053.606-.16.292.003.533.009.855.012-.031.117-.063.211.626.233l.009-.155.55-.027q.008-.051.02-.101c.185-.009.338-.015.563-.024l.035-.1q.474-.015.892-.022.009.05.021.1c.282.013.74.025 1.068.047a3 3 0 0 0 .375-.067c.286-.055.493-.12 1.014-.079-.049-.073-.098-.145-.138-.217.402.043.715.086 1.153.161.135.18-1.098.15-1.04.316.778.005 1.369.074 2.44.443a4 4 0 0 0-.414-.181 7 7 0 0 0-.353-.127c.171.015.297.022.518.068.206.045.367.073.67.212.129.078.214.129.392.28.169.15.335.334.474.606.35.653.165 1.435-.046 1.776.265-.37.402-1.171.156-1.717-.205-.491-.399-.655-.469-.765-.071-.094-.029-.11.183.058.106.091.254.22.426.515.196.315.339.937.237 1.427-.137.24-.318.432-.469.527-.329.562-.607.739-.837.929-.236.18-.442.308-.657.435-.144.004-.263-.009-.396-.015-.884.558-.362.326.066.23-.695.631.409-.06.844-.48.245-.178.294-.154.208-.057-.436.473-1.199.837-1.829 1.124.076-.092.149-.184.231-.281-.302.116-.608.224-.899.32l-.02-.048c.172-.121.351-.247.524-.375-.576.265-1.142.495-1.709.714-.153.172.701-.04 1.213-.266.027.134-.409.359-1.092.61l-.051-.147c-.756.333-1.496.549-2.27.821l-1.099-.015c-.31.158-.619.315-.94.474.27-.074.674-.299.832-.297.16 0 .311.021.342.075a10 10 0 0 1-1.887.4c-.099.058-.22.12-.32.176-.041.024-.11.059-.146.083-.022.017-.112.07.012.025-.115.079-.216.145-.302.208-.186.132-.089.146-.682.318q.133-.123.274-.257c-.386.118-.74.204-1.093.286l.131-.146q-.445.129-.879.242c.12.058.23.119.353.176q-.61.056-1.211.097l.191.167-.299.034c-.13.082-.272.166-.403.248q.577-.141 1.159-.29-.64.244-1.274.477c-.395.015-1.062.168-1.07.047l-.544.122-.043-.149-.571.16q.17.08.334.163c-.463.019-.903.032-1.365.049-.43.099-.98.203-1.381.313-.249.07-.395.171-.571.216-.34.087-.422.113-.59.165-.082.025-.185.057-.358.107-.421.123-1.833.435-2.051.59.187.03.4.053.604.079-.319.122-.482.22-.843.347s-.662.16-.546.25c-.193.046-.384.085-.571.127 0 .025 0 .05.026.07.5-.003.814-.026 1.618-.217.548-.13.686-.208 1.158-.202M48.399 7.017l.005.104-.734-.074.306-.11-1.176-.079-.318.188q.59.04 1.18.078l-.01.156q.657.045 1.316.087l.161-.095.281.092.88.087-.844-.289q.293-.046.584-.093c-.595-.039-.863-.106-.864-.212zm-1.93.159.146.036.45-.049-.145-.035zm-1.79-.123c.005-.033-.279-.053-.28-.02-.006.033.278.053.28.02M34.416 6.29c.003-.032-.272-.054-.276-.021-.004.032.273.054.276.021m-2.625-.186.587.048q0-.027.004-.052l-.587-.048zm-5.307-.476c.004-.033-.271-.057-.274-.024-.005.032.271.056.274.024m26.43 1.91c.002-.033-.281-.05-.281-.017-.006.032.28.05.28.017m-12.61-.85c.005-.032-.274-.053-.277-.02s.275.053.278.02m26.168 1.555.583.026c-.05-.068.174-.09.301-.142l-.873-.04q-.007.078-.011.156m-7.926-.614-.025.1-.568-.028-.007.104.585.032.309-.192-.292-.016zM17.407 4.743c-.423-.126-.92-.218-.875-.059l.442-.006zm27.6 2.097c-.062.048.181.184.58.197l.014-.156zm25.587 1.537.592.024q.002-.025.003-.052l-.593-.024zM28.562 5.632c-.255-.075-1.002-.022-.887.012.256.076 1.002.022.887-.012m36.75 2.4q-.005.052-.007.103l.586.028-.433-.125zm-.89.06.294.015q.008-.078.012-.156l-.294-.015q-.005.08-.012.157m-46.433-3.32.584.056q.011-.077.019-.155l-.584-.056zm-2.874-.446c-.17-.047.118-.133-.588-.15.003.128.963.377 1.72.428.007-.068.018-.139.024-.206-.385-.037-.762.035-1.156-.072m38.707 3.188c.325.03.586.024.887.027.303.003.615.024.603-.043l-1.18-.07-.293-.122q-.01.105-.017.208m20.318.748c.207.078.34.14.28.22l.872.032q.006-.105.012-.208zm-4.73.012.602-.078-.594-.026zM64.126 8c.003-.033-.276-.047-.278-.014s.277.046.278.014M27.383 5.523c.04-.173-1.064-.188-1.732-.256l.725.22zm9.123.539c.206.087.346.154.276.23l.296.023.021-.207zm35.567 2.245c.003-.032-.276-.044-.279-.011-.002.033.277.044.279.011M68.22 8.14c.003-.033-.273-.045-.274-.012-.003.032.272.045.274.012m19.165.65q.737-.033 1.467-.069l-1.46-.086zM10.037 3.198c.275.035.025.081.304.134.17.032.38.085.6.11.599.067.803-.008 1.283.162l-.586-.032-.038.308.58.086c-.365.04-.232.126-.899.04.014-.04.338-.03.17-.086-.41-.138-.567-.11-.817-.273-.23-.15-1.503-.404-.597-.45m72.618 5.46c.326-.012.494-.047.88-.027l.013-.208-.588-.017zM81.2 8.613l.292.009c.023-.073.256-.127.301-.198h-.008v-.001c-.19-.004-.382-.014-.574-.019zM30.34 5.696c.004-.032-.275-.055-.278-.023-.004.033.275.056.278.023m-2.59-.35c-.31.02.34.205.48.196.308-.02-.34-.204-.48-.195M12.46 4.073c-.01-.106.316-.128.901-.067zM73.26 8.28l.586.023.003-.053-.585-.022zm-3.845-.188c.003-.033-.28-.045-.282-.012-.002.032.28.045.282.012m-2.632-.096 1.164.054.002-.053-1.164-.053zm27.674.836c.501-.048.757-.025 1.278.018l1.349-.108c-.757-.14-1.472-.01-2.325-.113zm-1.768-.031.591.01q.002-.025.002-.052l-.592-.01zm-32.67-1.3c.577.028.895.1.864.202-.59-.029-.893-.1-.863-.202m-4.67-.471c-.37-.02-.462.054-.6.096-.235.07-.4.116-.318.215h.002c.76.063.495-.009.603-.094.108-.084.396-.119.313-.217m44.71 1.675 1.17.167q-.29-.106-.579-.214zm-28.27-.566c.002-.032-.278-.044-.28-.011-.001.033.278.044.28.011m-42.02-2.57.59.05q.006-.051.01-.103l-.59-.05q-.006.053-.01.104M91.21 8.642l.592.09.006-.156-.149-.003zM62.374 7.73l.296.015.008-.104-.297-.015q-.005.051-.007.104M5.152 3.177c.004-.033-.272-.063-.276-.03-.005.032.273.062.276.03m96.372 5.646.88-.149-.875-.007q-.002.078-.005.156m-61.756-2.54c.003-.033.282-.012.278.02-.002.033-.281.013-.278-.02m30.545 1.743c.002-.033-.278-.045-.28-.012s.279.044.28.012m-2.079-.094c.003-.032-.27-.045-.274-.012-.002.033.273.045.274.012m-3.495-.137.294.014q.005-.052.007-.104l-.293-.014zm24.111.796c.002-.033-.274-.04-.275-.007s.274.04.275.007m-1.168-.028c.002-.032-.276-.039-.277-.006s.277.04.277.006m-33.87-1.518c-.136-.029-.811.06-.511.123.136.03.812-.06.51-.123m25.645 1.199-.006.104-.589-.02q.002-.053.006-.104zm-2.962-.025c.001-.033.285-.022.282.01-.002.033-.284.023-.282-.01m-51.978-3.34c-.243-.045-.63-.042-.88-.053-.001.035-.008.069-.011.104l.584.052zm105.897 3.56.146.022.433-.09-.145-.022zm-58.302-.625-.302.118.436.096.45-.112-.582-.102zm17.333.712.582-.066-.43-.088-.145-.003q-.005.078-.007.157m36.242-.029c-.001-.033-.276-.027-.275.006.001.032.275.027.275-.006m-29.166-.179c.289.043.22.067-.005.102-.431.068-.941.047-.882.17l1.452-.03q.007-.13.013-.26zm-87.226-5.2-.623.196-1.74-.104c.8-.097.893-.264 2.363-.092M64.162 7.61l.589.029.003-.052-.589-.029q-.002.026-.003.052m25.585.61.88.018c.008.039-.265.035-.237.076.03.04.337.079.232.131.45.029.887.055 1.33.082l.757-.17c.063-.1-.172-.068-.59-.088l-.15.049-1.035.03-.308-.11h.003c-.036-.044-.28-.067-.295-.11l-.292-.007zM47.12 6.565q0 .027-.003.052l-.59-.04.003-.051zM82.103 8.12q-.001.052-.005.103c-.29.002-.952-.063-.87-.13zm-3.898-1.274c.207.041.214.136.467.165s.672-.086.55.049c-.123.134-.42.06-.855.114-.2.025.1.145-.332.16.299.04.582.073.874.11q.128.148.257.295c-.63.092-1.073.207-2.06.163.054.03.355.089.29.114l-1.188-.095q-.002.053-.006.104l-1.458-.055q0-.025.003-.052l1.461.003.007-.104c.387.004.555.052.891.085-.066-.094.048-.148.46-.192l.739.051-1.48-.13c.205-.062.402-.125.61-.187-.51-.012-.294.109-.793.125-.267.009-.834-.027-1.14-.04-.309-.012-.471-.003-.436-.068.93.043.45-.162.885-.254l-.865-.058.306-.143 1.023-.012c.388.074.752.133.731.23q.298 0 .597-.004c-.065-.1-.623-.152-.58-.255.68.04.63-.065 1.042-.119M29.672 5.091c.297.073.486.122.426.193l-.886-.075c-.045-.08.151-.096.46-.118m51.27 2.889-.008.156-.586-.02q.003-.077.009-.155zM46.252 6.3l-.755.103-.739-.102.757-.102zm-8.085-.425.153-.04-.295-.022zm-9.235-.847-.011.104c-.57-.04-.965-.087-1.174-.205zm66.43 3.09c.008.084-.096.182-.306.254l-.874.013zm33.697.01-.446.088.001.026.888-.02-.442-.094zm-54.013-.354-.006.104-.583-.023.444-.087zm-38.8-2.098-.875-.068.002-.026.442-.044zm101.176 2.276.602-.02-.001-.051-.602.02zm-50.005.212q-.002.027-.002.053l1.17.028q0-.053.004-.105-.584.013-1.172.024m47.673-.166.438.013.016-.004h-.008l-.444-.01zm-24.132.42c0-.034.281-.034.28-.001.001.033-.282.033-.28 0M13.71 3.594l-.595.019.019-.155.146.014zm37.828 3.074c.003-.032.278-.015.275.017-.003.033-.278.016-.275-.017m29.995 1.355c.001-.033.276-.024.274.009 0 .033-.277.024-.274-.009m-2.349-.154q-.002.053-.006.104l-.295-.01q0-.053.006-.104zM52.152 6.106c.202.092.378.178.563.269-.171.032-.447.09-.578.12-.216.052-.053.073-.166.123-.136-.079-.279-.156-.42-.235l-1.16-.073c-.15.13.636.1.54.218-.031.04-.599-.009-.705.032-.15-.113-.273-.227-.42-.339-.503-.06-.679.031-1.033.03-.552-.003-.853-.07-1.318-.132.004.12-.409.174-.026.31l-.886-.058c.388-.146.644-.294.639-.48.755.055.934.148.864.267.787-.001 1.807-.129 2.655-.038.04.055.092.111.127.165.542-.016.26-.114.505-.173.117-.027.662.03.82-.006m71.456 2.15c0-.033-.28-.029-.281.004 0 .033.281.029.281-.004m20.014-.578.589-.023-.442-.087h-.001l-.148.006q.002.052.002.104M66.828 7.32c.017.106-.305.145-.886.115-.017-.105.305-.144.886-.115m-7.644-.256c.002-.033.278-.018.275.015-.001.033-.278.018-.275-.015m25.871.941c-.257-.06-.998.035-.884.063.259.06 1-.036.884-.063m62.674-.576c0-.033-.282-.02-.281.012.001.033.282.02.281-.012m-24.408.753c.376-.015.559.022.886.038q0-.053.001-.104l-.887.014zm41.748-1.679.289-.016-.003-.105-.29.017zM14.052 3.236c.734.06.586.11.566.214l-.292-.03-.318.179q.021-.181.044-.363m.843.424c.004-.032.279-.005.275.027-.003.033-.28.006-.275-.027m123.724 4.096c.131.037.16.057.297-.01zM53.897 6.71c.002-.032.284-.016.28.017-.001.033-.282.016-.28-.017m29.966 1.28c.002-.032-.282-.04-.283-.007-.001.032.282.04.283.008M2.893 2.407c.004-.033.283-.002.278.03-.004.033-.282.002-.277-.03m71.581 5.19-.006.103-.577-.126zM37.755 5.608c.002-.033.283-.011.28.022-.003.032-.284.01-.28-.022m-.881-.224.305-.002q-.014.076-.026.154l-.742-.009c-.447-.077-.866-.152-1.3-.228l.584-.004-.006.041.582.08.615-.162q-.007.064-.012.13m-4.097-.168c.002-.033.28-.01.276.023-.005.032-.28.01-.276-.023m60.53 2.97c.196 0 .392.008.588.01l-.584-.115q-.002.053-.005.105m23.837.044c.001-.033.283-.035.282-.002 0 .032-.283.035-.282.002M53.602 6.56q-.003.053-.009.104l-.595-.036q.003-.053.009-.104zm102.646.35c-.001-.033-.276-.018-.275.014 0 .033.277.018.275-.014m-2.942.178.872-.044-.002-.052-.872.044zm-73.21.29c.931.017 1.185.177 2.033.22.009-.033.01-.066.025-.1.561 0 1.076-.066 1.415.068.287.116-.569.043-.829.056l-.04.003c-.064.013.063.046-.021.063-.337.072-.656.11-.566.223-.891-.023-1.461-.18-2.334-.126l-.276-.322.877.08zm27.046.801c-.067-.163 1.132-.134 1.458-.022-.276.016-.182.122-.433.123-.869.004-.015-.211-1.025-.101m22.647-.2c.001-.033-.276-.026-.277.007 0 .032.278.026.277-.007m20.267-.735-.001-.104q-.284.014-.571.027zm-30.568.91c.001-.032-.277-.03-.276.004-.001.032.276.03.276-.003m38.67-1.37.743-.094h.002q-.002-.051-.003-.104l-1.2.065zM111.556 8.18l.586.052c-.396 0-.712-.058-1.035 0-.497-.054-.3-.07-.2-.133.156-.097-.289-.14-.239-.23.291.105.593.207.888.31M15.779 3.616l-1.173-.063c.002-.035.014-.068.012-.103.141.012.28.029.42.043l.323-.075zM155.072 6.92c-.001-.032-.283-.018-.283.015.001.033.285.018.283-.015m-4.117.074c-.057.055.204.162.6.128l-.003-.156zm14.1-.673c0-.033-.278-.017-.277.016.001.032.279.017.277-.016m-25.261.874-.585.176 1.17-.04q.002.077.002.155c-.679.06-1.362.117-2.061.176.057-.064-.204-.085-.142-.152h-.002c.097-.104.505-.218.438-.327.399.003.789.008 1.18.012m-23.851.889c-.305.028-.582.056-.874.084l.001-.052h-.001l.724-.057zm17.376-1.053c.991.008.975.2 2.063.15l-.585.226c.631-.057 1.219-.046 1.859-.05.136 0 .181.036.365.03.568-.023 1.056-.152.998.025l-1.193.038.001.26a3.1 3.1 0 0 0-.849.026l-.036-.099-.547.012-.024-.153-.552.01q-.01-.049-.022-.099l-.589.015.271-.084-.42-.066q-.37.037-.743.072c.625-.155.62-.192 0-.312zM20.023 3.867c.123-.001.41.032.428.04.217.077-.207.104-.434.115q-.367-.087-.727-.173h.002c.347.049.5.022.731.018m-6.57-.586q-.005.053-.013.104l-.587-.06.013-.103zm67.5 4.49.876.028q.002-.026.002-.052l-.874-.028zm47.07-.09c-.06.146.353.236 1.185.234v-.208zM6.117 2.599c.005-.032-.27-.062-.275-.03-.005.033.272.063.275.03m135.709 4.835.001.052c-.304-.014-.578-.03-.869-.046l.143-.031c.243.008.468.018.725.025m22.942-1.175c.312-.023.507-.02.726.005.42-.074.854-.148 1.317-.224l-2.044.115q-.001.052.001.104m-8.815.511c0-.033-.277-.018-.276.015 0 .033.278.018.276-.015M10.538 2.776c.038.143-.004.25-.921.166l-.56-.267zm-1.496.08c.003-.032.278-.004.273.029-.004.032-.278.004-.273-.029m97.809 5.219-.001.052-.589-.003q-.001-.026.001-.051zm45.292-1.086.584-.028q0-.053-.003-.104l-.145.007zm-77.37.461q0 .027-.002.053l-1.166-.046.002-.052zm-1.745-.12q-.003.051-.007.104l-.293-.012q.002-.053.007-.104zM60.661 6.7c-.123.178-.911.115-1.755.062q.006-.078.013-.156l.884.02zm52.075 1.322-.001.052-.59.002.001-.052q.296 0 .59-.002m-93.73-4.305-.605.048q.005-.053.012-.104zm66.66 4.088.59.016q.003-.053.005-.104l-.59-.016zm48.889 12.046q.004-.053.005-.104l-.599-.007c.201.038.393.075.594.11m37.794-14.805c-.517.14-.039.143.266.23.151.044-.148.094.084.12.237.026.676-.002.798.067-.168.062-.363.127-.555.192l-.439-.036c-.579.087-.205.113-.156.21-.491-.038-.922-.074-1.443-.104l-.004-.154.594-.078a67 67 0 0 0-.907-.039q.788-.1 1.463-.19-.675-.015-1.465-.019l.907-.064-.296-.093c.409-.016.732-.03 1.153-.042M98.904 7.961c.046.043-.099.05-.316.05zM40.441 5.366l-.424.02-.183.144-.291-.177-.578-.045q.004-.051.012-.103zm-5.888-.268c.003-.032.278-.01.274.022-.002.033-.278.011-.274-.022m30.258 1.71-.015.207-.588-.029.31-.193zM27.56 3.862c-.028.114-.456.121-.266.27.124.098 1.22.378 1.08.48-.723-.173-1.157-.172-2.039-.227-.023-.081.32-.015.596-.028.406-.019.293-.127.307-.207l-.597.104-.253-.306c.39-.029.785-.055 1.172-.086m147.646 2.528c-.261.112-.521.219-.79.325l.018.05c.269-.107.53-.215.792-.327q-.01-.025-.02-.048m-40.999 1.085.001.156a3.4 3.4 0 0 1-.89-.053c.272-.06.465-.1.889-.103m.305.122c0-.033.277-.041.278-.008.001.032-.278.04-.278.008m42.636-2.206c.052-.041.063-.048.022-.053-.012-.01-.003-.034-.011-.023-.006.007-.027.067-.011.076M12.588 3.063l-.45.033-.144-.04.451-.033zm163.753 2.554c-.36.064.078.208-.579.202l.005-.186c.204-.008.355-.018.574-.016m-1.948-.232q.127.014.244.032.308.036.58.078-.145.11-.297.22-.142 0-.293.002-.357.008-.827.03.468-.093.832-.173.013-.022.001-.037c-.041-.073-.416-.035-.824-.051.023-.07-.122-.127-.29-.178-.154-.05-.367-.096-.565-.148h.002c.247-.019.446-.035.701-.05q.408-.024.745-.037zM76.535 7.464c.355.015.498-.07.572-.114.073-.043.03-.08.038-.125q-.446-.014-.894-.032.141.135.284.271m19.432.093c.083.049-.14.222-.314.241-.457.05-.648-.028-.576.108-.746.03-1.453-.232-1.45-.339l.437.113c.638-.04 1.273-.086 1.903-.123m48.538-.357c-.001-.033.275-.044.275-.011s-.274.044-.275.01m-47.968.624q-.002.052-.005.104l-.29-.004.005-.105zM70.39 7.01l-.314.142h-1.188c-.033-.19.52-.197 1.502-.142m-2.05-.455c-.025.047.14.115.14.16 0 .055.134.198.098.225-.127.096-.394.088-.28.187-.29-.032-.576-.06-.866-.092q.15-.082.298-.166-.427-.098-.855-.2l.582.031zm101.181 2.031q-.014-.05-.03-.1l.281-.091.03.1zm3.837-1.412q-.273.1-.545.197.007.025.017.05.272-.098.544-.198zM61.548 6.8l-.595-.031.455-.08.147.007zm-38.7-2.83q-.005.053-.012.104l-.293-.026q.005-.053.012-.104zm-4.423-.412c-.038-.11.155-.114.772-.03.55.075 1.004.192.988.301-.716-.057-.966-.08-.868-.21zm155.489 3.438c.011.031.266-.066.255-.098-.01-.03-.265.067-.255.098m-13.861-.627c.047.01.015.045.142.036s.126-.033.142-.052c-.094.006-.189.008-.284.016m-50.869 1.346c.181.162-.971.125-1.386.157-.413.033-.339.067-.659.1.219-.086.403-.172.607-.258zm27.461 8.932c-.579.045-1.21.216-1.877.358.49-.21.814-.442 1.362-.644.26-.095.281-.055.456-.077.034-.04.077-.086.114-.129l.591-.047c-.076.123-.158.246-.237.37zm-10.098-8.91c0-.033.272-.038.272-.005.001.032-.272.038-.272.005m-27.038-.133c.06.184-.729.214-1.495.294-.04-.181.638-.237 1.495-.294m44.389 7.02c.006.033.278-.025.271-.057-.006-.033-.277.025-.271.058m-77.62-7.667c.003-.033.278-.02.276.013s-.278.02-.276-.013m49.682.268c.033.106.121.166-.587.161q.355.098.73.195l.441-.048c.111.157.882.186 1.49.274-.668.131-1.25.072-2.085.044l.303-.159a5.7 5.7 0 0 1-1.314-.089l-.729.05.294-.106-1.165-.073h-.002c.501-.102 1.06-.083 1.74-.088-.057-.117.382-.113.884-.16m59.56-.828c.014.03.258-.08.243-.11-.011-.03-.254.08-.243.11m-43.101 10.982q-.012-.052-.023-.102c.237-.048.425-.078.673-.12l.223-.037c-.027-.03.015-.082.111-.132.25-.128.291-.082.581-.146.295-.064.382-.14.717-.194l.028.154c-.701.077-1.054.192-1.131.357l-.509.09c-.247.045-.433.079-.67.13m-.348-.096c.026.025-.301.123-.302.09-.019-.03.312-.129.302-.09M48.369 5.944c.002-.033.28-.014.278.018-.002.033-.281.015-.278-.018m96.991.935c-.125.04-.216.152-.431.171-.414.037-.667.037-1.019.096l.155-.163zM34.563 4.916l-.004.052-.582-.046.004-.052zm117.749 8.406c.006-.073.026-.148-.321-.118-.276.024-.169.052-.444.108-.19.038-.442.04-.704.114.119-.116.253-.233.379-.349l-.105.236 2.006-.46-.838.315h-.003l1.15-.248zM84.202 7.53c0-.032.283-.025.281.008 0 .033-.283.025-.281-.008m49.528 10.291c-.377.076-.461.051-.508.015-.04-.029-.052-.066-.155-.068-.12-.002-.285.035-.436.068-.179.04-.323.07-.397.048.142-.1.376-.225.529-.323q-.168.053-.359.117c-.127.042-.214.075-.358.127-.13.049-.225.088-.367.152-.067.031-.103.05-.192.099-.076.05-.125.058-.248.209.076-.136.129-.184.174-.244.05-.058.112-.114.145-.156a1.6 1.6 0 0 0-.275.146c-.057.041-.167.115-.239.281a.55.55 0 0 0 .023.457c.081.134.115.146.169.19.345.203.442.165.631.209l-.07.358a3 3 0 0 1-.289-.058 2 2 0 0 1-.201-.062c-.057-.024-.176-.06-.339-.193a.91.91 0 0 1-.288-.427c-.102-.252.016-.636.068-.7.128-.23.303-.337.347-.369.124-.084.266-.145.335-.174l.05.147c-.047.02-.122.053-.198.095-.077.05-.133.056-.306.243a.776.776 0 0 0-.177.573.76.76 0 0 0 .295.512c.19.136.257.14.341.172h.001l.027-.073c-.063-.024-.092-.035-.193-.09a.8.8 0 0 1-.253-.223.65.65 0 0 1-.108-.24.66.66 0 0 1 .226-.639c.116-.093.13-.089.191-.122.115-.056.192-.08.273-.104a3 3 0 0 1 .24-.065l.054.089c.25-.099.459-.172.715-.253.493-.044.604.001.222.188l.364-.02c.324-.009.568-.003.536.108m43.356-11.987c.011-.034.222.033.198.062 0 .032-.204-.032-.198-.062m-46.411 1.708-.145.03-.438-.068.146-.03zM48.682 5.705c.894-.036 1.823-.011 2.623.167q-.3.098-.601.197l-.283-.123-1.471.01c.01-.07.003-.138.025-.208-.195.008-.071-.003-.342.008-.272.012-.226-.04.049-.051m-29.99-3.218c.484.01.49.092.588.156.124.08.133.145.425.225l-.904.045c.838.09 1.366.067 1.503-.068l.284.131 1.176.057q-.001.053-.001.104l1.453.078.034-.098.867.077.279.285.544.055c-.015.019-.027.039-.013.06-.186-.029-.363-.06-.555-.088-.156-.062-.538-.02-.57-.003-.11.06.01.121-.036.182q.292.04.58.08l-.885.024c.187.075.668.133.541.209-.074.043-.478.05-.717-.044-.305-.119-.481-.241-.396-.347-.658-.085-1.138-.08-1.766-.11h-.004c-.044.028-.161.038-.274.052l.545.182c-1.122-.11-1.636-.274-1.732-.476-.277-.01-.43.017-.738-.017l-.991-.385.606-.201c-.19-.036-.384-.07-.57-.108.234-.007.49-.062.726-.057m87.282 5.324-.002.052-1.184-.058q.075-.052.152-.104zm63.766-2.186-.585.133-.002-.104zM33.403 4.77l-.004.052-.584-.047.004-.052zm129.294 1.24q.002.052.003.104l-.288.016q0-.053-.003-.104zM140.674 7.19c-.001-.033.273-.043.273-.01s-.272.042-.273.01m-.581.02c.001-.032.275-.042.275-.01.002.033-.274.043-.275.01m-78.52-.723q-.006.078-.013.156l-.297-.015.012-.156zM22.567 3.84l-.005.052-.587-.054.005-.051zm-7.895-.91c-.065-.062.185-.156.604-.034.086.025.064.144.418.187.201-.028.4-.065.602-.096.268.077.581.179.68.254.056.042-.085.039-.124.066-.05-.042-.093-.082-.14-.123l-.6.1a5.8 5.8 0 0 1-1.323-.234L13.783 3l-.273-.183q.582.058 1.162.113m72.49 4.629c0-.033.279-.026.277.007-.001.032-.279.025-.278-.007m90.3-2.038c-.07-.014-.063-.078-.159-.054.056-.046.006-.079-.013.146.011.274.176.346.128.318.007-.027.048-.05.067-.08.007-.018-.003-.037-.026-.116a.4.4 0 0 1 .003-.214M12.91 2.939c.005-.033.282-.005.277.027-.003.033-.282.005-.277-.027m-4.101-.605c-.409.197-1.417.162-1.45-.153zm117.446 5.069c1.638-.044.956.186-.292.214zm41.576-1.74.42-.04c-.347.083-.577.167-1.146.192.319-.091.017-.088-.004-.156q.372 0 .73.004m-1.332.133.003.052-.875.05-.002-.053zm1.19 3.781-.043-.15a22 22 0 0 1-.538.184c.267-.102.541-.21.792-.319l.06.2q-.131.044-.271.085M33.998 4.793c.003-.033.279-.01.275.022-.003.033-.279.01-.275-.022m136.739 3.78c.092.195-.56.218-.94.329-.513.15-.314.154-.74.187-.038-.001-.18.013-.253.004-.099-.001-.196.001-.121-.054.531-.216.959-.36 1.426-.533-.074.106-.133.207-.21.315.274-.081.57-.165.838-.248M90.962 7.515q0 .053-.005.104l-.298-.006q0-.053.004-.104zm22.075.141q0 .053-.002.105-.293 0-.588.002l.444-.106zm-1.178.004-.002.104-.591-.103zm21.108 11.32c.264-.012.335-.07.586.024s.048.181.178.286c.094.077.618.156.534.245-.287-.01-.59-.026-.893-.044q.013-.195.025-.39a14 14 0 0 1-1.501-.107c.257-.067.555.008 1.071-.014m44.052-13.19c.022.026-.181.154-.202.127-.011-.03.188-.156.202-.127M85.963 7.318q-.51.077-1.021.153c-.197-.055-.43-.054-.735-.072l-.29-.268c.785.11 1.001-.002 1.784-.003zm-75.107-4.64c.005-.033.284-.004.279.028-.004.033-.284.004-.279-.029m41.61 3.37c.002-.033.276-.016.273.017-.002.032-.276.016-.273-.017m85.279 10.095.297-.018.425-.115c-.345.141-.574.264-1.123.378zM73.922 7.104c-.424-.056-.644-.098-1.023-.04l-.145-.032c.37-.05.618-.112 1.177-.084zM36.627 4.87l-.01.104-.298-.023.011-.104zm104.907 2.185c-.004-.033.277-.043.279-.01-.001.033-.282.043-.279.01m-75.241-.306c.002-.033.278-.02.275.013-.001.033-.278.02-.275-.013m74.381.337c0-.033.272-.042.272-.01.002.033-.272.043-.272.01m-118.09-3.4-.598.049q.005-.053.012-.104zm134.241 2.622c-.002-.032.268-.047.269-.014 0 .033-.268.047-.269.014m-25.544.856c.382.069.735.138 1.14.205-.73.04-.482-.052-.87-.11-.159-.023-.389-.011-.575-.01-.196-.064.229-.13.2-.185-.06-.111-.596-.17.372-.194-.096.099-.176.196-.267.294M.28 1.495C.283 1.462.004 1.43 0 1.463c-.004.033.276.064.28.032m81.597 5.42-.592.06-.007.234 1.056-.065 1.278.006c-.37.042-.147.138-.748.107-.468-.025-.79-.062-1.28-.036-.01.033-.013.067-.021.1-.717-.007-.609-.07-.575-.174l-.3.147-1.173-.038c.156-.106.297-.168.015-.285l.446-.065.288.114.455-.14zm71.992-.455c-.001-.032.288-.047.288-.014.001.033-.288.047-.288.014M2.987 1.655c.402.102.486.058.88.097q-.01.077-.022.155l-.872-.149q.005-.05.014-.103m97.994 5.911-.003.105c-.293.007-.96-.045-.877-.114zM40.76 5.128q-.004.053-.01.104l-.293-.021q.004-.053.01-.104zm81.674 2.364-.449.085-.151-.024h.002l.45-.084zm-26.748-.15c.653.008.75.063.864.17.253-.002.656-.046.882-.014l-.886.118c-.009-.035.027-.07.004-.104-.586-.016-.883-.06-.864-.17m24.111.263.293-.236.87-.038zm-.876-.094-.589.11q-.001-.053.001-.104zm-24.693-.167c-.468.04-.104.115-.35.172-.103.024-.609-.017-.684.044-.068-.011-.1-.02-.154-.03q.52-.106 1.04-.215c.05.01.09.019.148.029m46.435-.337zl-.725.079-.147-.022.87-.108zm-1.162.041q-1.174.068-2.383.132l.293-.193c.531-.045.719-.026.939-.129.104-.048.176-.143.559-.154q.298.172.592.344m-50.579.396c.002-.033.275-.026.274.006 0 .033-.276.027-.274-.006m46.177-.515c.753.04 1.428.076 1.449.243-.536.083-.042-.025-.373-.065s-1.26-.03-1.076-.178m.363 12.454q.587.024 1.178.044.003-.052.003-.104l-1.178-.044q-.003.053-.003.104M17.305 3.215c.003-.033.278-.007.273.026-.003.032-.277.006-.273-.026m157.938 2.177c.004-.033.256-.018.257.015-.007.033-.257.017-.257-.015M162.6 10.848l-.011-.051.571-.132.01.052zm-22.086 4.906q-.01-.052-.017-.103l.572-.124-.412.196zM71.582 6.905l.295.012.007-.104-.295-.012zm73.491-.171h-.002q0 .051.002.104l-.58-.081zM38.118 4.957c.003-.033.282-.011.279.021-.003.033-.283.012-.28-.02m31.996 1.755h-.002l-.305.117-.587-.13.747-.019zM171.328 8.49l-.317-.032c.273-.118.537-.234.811-.354l.002-.001-.22.294zM91.866 7.456c.001-.033.282-.028.28.005 0 .033-.281.027-.28-.005m82.827-.4c.182-.023-.327.276.057.142.45-.159.801-.344 1.173-.555-.157.335-1.217.61-2.093 1.025q.437-.301.863-.612m1.481-.561c.122-.088.222-.168.343-.261l.135-.043c-.109.09-.229.181-.341.266zm-21.411-.315q.004.079.003.157l-.604.03q-.002-.077-.002-.156zm-.904.203-.856.042h.002l-.002-.026.428-.099zm5.028 5.35-.01-.052.38-.084.193-.042.01.051-.191.042zm-25.527 5.745c-.056-.09.341-.223.678-.365.512-.038.486.05.481.16-.391.07-.77.135-1.159.205m19.072-11.05c0-.033.274-.047.275-.014s-.274.046-.275.014m-13.613 9.757c-.355.179-.335.295-1.157.32.328-.132.65-.266.976-.398.249-.029.485-.05.729-.08-.034.082-.364.064-.548.158m25.222-5.591-.412.177-.141.033-.031-.154zm-17.064-4.045.156.15-.903-.014.299-.221zm21.71-1.185c.319.031.515.056.463.133l-.615.032-.002-.156zm-.721.091q0 .053.003.104l-.285.015-.004-.104zm-21.539 9.186-.985.265-.039-.096-.572.067 1.428-.308.565-.227-.252.267.878-.108-.559.2zm-4.598-7.754c.001-.033.286-.044.286-.011.001.033-.285.043-.286.01m-23.781.371.876-.034-.738.242.003-.156-.739.006.292.206c-1.539-.071-1.027-.316.3-.368zm31.946 6.456-.011-.05.575-.124q.006.026.01.05zM19.837 3.168h.002c-.29-.021-.189.05-.178.088.61.06.85.182 1.458.241h.004c.011-.094-.355-.163-.566-.262l.602-.049zm67.918 4.066q-.002.052-.005.104l-.586-.015q.001-.053.005-.104zM57.643 6.066l.43.128-.584-.033.009-.104zm119.259.013c.167-.07.335-.148.474-.225-.073.091-.187.2-.28.29l-.118.072zm-21.533.148c-.002-.032.278-.047.278-.014.002.033-.277.047-.278.014M105.69 7.444l-.003.105-.297-.002q.002-.053.003-.104zm-3.872-.077c.296.049-.36.172-.495.15-.297-.05.362-.172.495-.15m62.265 3.43c.369-.155.266-.212.238-.296l.568-.136c-.246.152-.233.25-.659.425zm-20.401 4.327-.011-.051.576-.123.009.05zM23.47 3.634c.003-.033-.274-.058-.277-.025-.004.032.273.057.277.025M112.748 7.5l-.883-.075.592-.08zm3.828-1.219c.546-.01.99-.102 1.482-.039l-1.188.089c-.023.059.425.083.296.154l.592-.006v.026l-.594.084.002-.104-.298.002-.003.156q-.447-.008-.896-.02c.417.065.265.143.296.234.247-.007.467-.024.589.024.231.09.356.178.3.28-.727-.062-.792-.173-.889-.304-.806.016-.713.116-1.165.186-.947.15-1.314.064-1.461-.118-.911.13-1.442.13-2.36.007.12.085-.424.127-.565.184-.138.057.213.072.229.108.029.061-.251.087-.239.143.007.029.252.035.229.06-.057.059-.557.088-.866.078.257-.1-.387-.191-.239-.279.239-.141.851-.183.556-.347-.614.067-.754-.056-1.316-.01h.002l-1.012-.121.58-.047.01.072c.576.019 1.138.037 1.741.055.023-.104.385-.166.9-.21q.001.052.006.103h.884l-.285.078c.094.044.169.007.266 0 .43-.026.533-.006.895.023l-.582-.259 1.024.1 1.022-.16.258.18-.554.134 1.446-.06q-.14-.104-.284-.207l1.182-.06zm-8.537 1.17-.001.052h-.584l.001-.053zm67.216-2.216c.005-.033.257-.018.259.016-.007.032-.259.016-.259-.016m-15.205 6.346-.009-.051.572-.128.01.052zM46.031 5.37c.004-.032-.277-.052-.28-.02-.003.034.278.053.28.02m55.252 1.939c-.13.057-.356.085-.298.153l-.583-.084c.27-.05.461-.083.881-.07m50.175 6.25q-.01-.05-.018-.103l.593-.02zM24.368 3.662c.003-.033.28-.008.275.025-.003.032-.28.008-.275-.025m-9.073-.931c.062.07-.597.066-.888.017l.013-.104zm120.35 14.215c.006.032-.267.092-.272.06-.008-.032.266-.092.272-.06M22.481 3.308c-.532-.106-.599-.114-1.033-.069q.876.147 1.744.29c.104-.1-.276-.134-.711-.221m135.812 2.608c0-.033.281-.049.282-.016.003.033-.281.048-.282.016m-1.631-.096c.405.039.476.091.432.186q-.141.008-.284.015l-.292-.167q.072-.015.144-.034M17.335 2.956c.004-.033.278-.007.273.026-.003.033-.277.006-.273-.026m159.929 2.25c-.003.036-.032.064-.03.101.197.057.349.108.473.19-.043.105-.018.062-.503-.09.002-.036.031-.064.029-.1a5 5 0 0 0-.541-.113c-.041-.101.078-.12.572.013M77.17 6.81q0 .027-.003.052l-.596-.021.004-.052zm49.661.218v.157l-.576.01c-.055-.05.193-.173.576-.167m22.06-.667.001.052-.581.026q-.002-.025-.002-.052zm-74.91.372-.037.008.067.007-.029-.015.555-.125-.873-.034zm26.429.412-.302.205-.881-.01c.05-.068.556-.13.266-.203-.08-.02-.91.012-.399-.06.426.024.882.046 1.316.068m66.431 3.215c-.262.025.156-.105.07-.152-.061-.029-.409-.015-.28-.115.771-.132.792 0 .21.267m-45.585-3.11c0-.033.272-.037.275-.004-.003.033-.275.036-.275.004m19.405-.606.001.104-.289.01-.001-.104zm-75.235-.301c.003-.033-.275-.047-.277-.014s.275.046.277.014m21.168.654c.607.007 1.1.11 1.61.04l.144.03c-.589.097-1.344.082-1.754-.07m50.521-.99-1.011.101-.723-.02q.133.034.266.07l-.411.086-.429-.036c.069.09-.378.12-.531.198-.045.023.187.024.147.048-.085.053-.28.08-.212.137l1.027-.133.89.128.701-.074c-.159.081.203.11.206.176-.006.068-.369.12-.203.19l-.58-.009.288-.139c-.691.032-1.138.03-1.595-.056l-.145.004c.041.072-.41.218-.883.234.107-.164-.366-.305-.001-.47-.779.022-1.621.045-2.368.064h-.003c-.045-.139.686-.165 1.337-.193.414-.006.742.06 1.173.017.732-.073.139-.207.154-.313-.685.046-1.765.19-1.787-.003l.91-.057-.012-.072.741.084.442-.117c.053.066-.181.102-.293.165q.289-.011.578-.016l.013.103c.982-.042.89-.213 1.303-.351.338.085.662.17 1.011.255M10.909 2.265c.005-.033.283-.004.279.028-.004.033-.283.004-.279-.028m141.518 3.903c0-.033.274-.046.274-.013.001.032-.274.046-.274.013M139.265 16.29l-.424.12.415-.17.445-.017zm6.807-10.067.455.059-.001.051c-.301.057-.604.113-.883.168l.281-.272zm-24.821.844q-.864.09-1.74.177l.873-.115-.58-.045.438-.109zm40.556-1.58q.004.077.004.156l-.298.017q-.002-.078-.003-.157zm-8.047 7.637c.119 0-.571.268-.832.27-.12 0 .572-.268.832-.27m4.231-7.297c-.001-.032.284-.048.285-.015s-.284.048-.285.015m-22.517 13.14-.003.103c-.592.006-.898-.054-.879-.157q.44.03.882.053M106.131 7.08c.64.004.922.013 1.527.054.34.023.5.014.382.11l-1.461.047q.002-.078.005-.156l-1.18.047c-.092-.12.197-.104.727-.102M34.341 4.22l1.44.218.016-.155zm143.52 1.795q-.036-.038-.074-.074c.126-.132.212-.282.167-.396a1 1 0 0 0-.099.028.34.34 0 0 0-.119-.12.44.44 0 0 1 .313.042c.078.195-.053.377-.188.52m-22.797-.084c0-.033.28-.047.28-.014.002.033-.279.047-.28.014m3.028 6.35-.01-.05 1.157-.202-.122.134zm-28.293-5.524q-.145.108-.291.214l-.437-.2.171-.027zm30.861 4.93c.004.033-.261.092-.268.06-.006-.032.261-.091.268-.06m2.889-.576-.022-.102h.002l.283-.066q.01.051.02.102zM38.177 4.31c-.554-.067-.447-.023-.633.02-.265.06-.622.048-.577.149.297.016.7.082.876.037.223-.057.355-.122.334-.206m126.8 6.464-.023-.102c.289-.07.571-.138.856-.21l.007.026c-.25.117-.424.195-.84.286m7.693-2.41-.449.044q.28-.096.556-.193l.031.1zm4.414-1.938c.013.032-.22.164-.236.135s.216-.16.236-.135M12.394 2.232l-.005.052-.588-.06.005-.052zm91.521 4.89q0 .026-.002.052l-.592-.004.002-.052zm66.384-2.124c-.005-.033.269-.046.276-.013-.006.033-.279.046-.276.013m-27.691 10.784-.019-.103q.144-.03.288-.062l.017.103zm-3.555-9.5c.374.027.391.13.729.156.51.04.969-.049.878.1l-1.445-.055c-.055-.067-.106-.135-.162-.2m35.119 1.508c.011.03-.248.128-.259.097-.011-.03.248-.128.259-.097M58.696 5.733l.43.102.148-.018-.43-.102zm98.398-.014c0-.032.265-.047.268-.014 0 .033-.267.047-.268.014m-2.041.03q.002.051.003.104l-.298.015-.003-.104zm5.65 6.115q-.01-.051-.02-.102l.572-.129-.407.199zM41.981 4.668l.43.11h-.002l.291.02.447-.072-1.164-.083zm98.604 11.524c.005.032-.268.091-.273.059-.007-.032.267-.091.273-.06m.657-9.753c-.001-.033.27-.043.27-.01s-.27.043-.27.01m13.154 6.859c-.088-.052.553-.237.843-.29-.046.08.181.061.314.092zM56.94 5.66l.146.008.449-.079-.586-.033q-.006.052-.009.104M17.362 2.67l-.29-.029.013-.103.29.028q-.005.051-.013.103m114.624 15.507c.022.025-.261.129-.262.097-.025-.029.265-.135.262-.097M104.381 6.706c.326 0 .538.052.885.06.407.01.905-.002 1.328.005.08.129-.294.108-.887.1l.296.105c-.445.033-.885.067-1.337.097-.216-.008-.348-.087-.436-.101-.495-.078-.918-.099-.896-.22h-.001c.41.015.644-.046 1.048-.046m44.838-.777c.134-.027.775.073.484.132-.131.027-.778-.072-.484-.132m-48.935.955c.39-.015 1.205-.026 1.304.063q-.875.044-1.762.086c.167-.036.176-.138.458-.15m23.347-.008v.052l-.593.009.001-.052zm24.39-.916c.103-.055.592-.06.857-.068-.125.066-.446.137-.714.186-.396.074-.477.062-.748.01h.002c.392-.064.413-.027.603-.128m29.895-.763q-.03.043-.06.085a1.5 1.5 0 0 0-.261-.132q.02-.048.04-.096c.073.027.206.09.281.143m-76.017 1.231c.151.085.349.154.489.243.141.09.258.22.353.309.054.051-.509.037-.549.023-.272-.095-.142-.162-.894-.163.004-.017.001-.035.003-.052l.581.004q.007-.181.017-.364m4.697.577c.001-.032.279-.031.278.001 0 .033-.279.032-.278 0M.406.843l.885.1.006-.052-.885-.1zm171.081 3.869.002.104-.293.011q-.002-.051-.002-.104zm-128.05.034.58.041.004-.052-.58-.04zm96.756 11.717-.448-.01.574-.124q.01.051.017.103zm-15.094-9.716v.104l-.293.005q.001-.053.001-.104zm44.033-2.032.302.194-.297.015q-.303-.09-.618-.177zM36.098 4.201l.592.046.004-.052-.592-.046zM93.65 6.864c.002-.033-.275-.038-.278-.005-.001.033.278.038.278.005m65.943-1.62c.408.037.479.09.436.185-.476.057-1.001-.03-1.162-.092h-.001q.368-.046.727-.093M90.994 6.838l.298.006.005-.104-.298-.006q-.002.053-.005.104m65.518-1.218-.292-.193.57.022c.191-.062.375-.125.57-.187-.284.12-.562.239-.848.358m20.416 1.133c.018.029-.242.165-.251.132-.019-.026.24-.162.251-.132m-90.623-.051c.001-.033-.278-.04-.279-.008-.002.033.278.04.279.008m17.914.266.596.003.003-.104-.596-.004zm24.116-.259c.001-.032.28-.038.28-.006.001.033-.281.04-.28.006m14.975-.583.001.104-.594.024.445-.122zm-49.643.556-.005.104q.587.038 1.17.073c-.01-.135-.466-.174-1.165-.177M33.777 3.94c.003-.033-.273-.055-.276-.023-.003.033.273.055.276.023m84.28 2.929c0-.033.28-.036.279-.003.001.033-.279.036-.279.003M30.264 3.65c.002-.033-.276-.056-.278-.023-.004.032.275.056.278.023m86.904 3.226c0-.033.282-.035.281-.002s-.282.035-.281.002m22.763 11.827c-.04-.062-.314-.073-.316-.04.001.033.257.041.316.04M20.605 2.82l-.59-.056c.039-.054-.025-.095-.279-.157l.599-.022zm117.532 15.835c-.003-.032.28-.035.279-.002s-.283.035-.279.002M16.805 2.407l-.005.052-.582-.057.005-.052zm91.548 4.499c0-.033.274-.033.274 0s-.276.032-.274 0M44.316 4.704l.29.02.01-.104-.29-.02q-.007.051-.01.104m56.693 2.107c-.224.068-1.083 0-1.479.015-.035.001-.161.077-.435.041-.116-.015-.133-.026-.147-.053.186.013.403-.003.582.012.017-.028.007-.036.009-.057-.248.021-.246-.05-.279-.053-.224-.02-.392.002-.613-.011l.018-.006c.026-.015-.03-.042.148-.043.075 0 .204.002.284.004.223.006.058.037.164.056s.343.003.279.053c.2.004.392.004.589.007l-.58-.138.589-.122zM43.443 4.616c.002-.033-.273-.052-.275-.02-.003.033.272.053.275.02m29.076 1.493c-.562-.031-.959-.035-1.184.056.566.033.96.036 1.184-.056M37.883 4.234l.591.045q.006-.053.01-.104l-.59-.045q-.006.053-.01.104m84.868 2.525c0-.033.281-.037.281-.004.001.032-.282.037-.281.004M37.583 4.185c.004-.033-.276-.054-.28-.022-.003.033.278.055.28.022M167.3 10.423c.008.032-.263.106-.269.073-.009-.031.262-.105.269-.073M58.995 5.54c.003-.032-.273-.047-.275-.015-.002.033.274.048.275.015m-5.553-.607c-.02.053.013.133-.018.18-.066.105-.39.044-.748.087l.161-.2-.574-.087h.001zm-41.59-3.045c.004-.032.28-.004.277.029-.003.032-.282.004-.278-.029m39.532 3.075-.009.103-.731.006-.144-.034.302-.112zm29.344 1.472c.002-.033-.275-.041-.276-.009-.003.033.275.042.276.01m47.307-.265-.3.213-.449-.094c-.66.135-1.256.268-1.893.4h-.003l.308-.211.56-.014-.144-.258.873-.117zM41.701 4.44c.004-.033-.273-.053-.276-.02-.003.032.274.052.276.02m105.121 1.464-.45.097-.152-.02.451-.097zM23.856 2.91q-.225.03-.45.064l-.43-.118q0-.013.003-.026zm65.379 3.707c.002-.032-.272-.04-.275-.006-.002.033.274.04.275.006m86.47 1.035-.057-.146c.178-.076.365-.159.543-.24-.023.083.188.02.332.016-.272.13-.55.255-.818.37M85.44 6.444l-.005.105.885.023q0-.027.003-.052c-.374-.001-.555-.045-.883-.076M56.673 5.332l-.003.052q-.294-.016-.588-.034l.003-.052zM55.2 5.247l-.003.052-.59-.035.003-.052zm75.766.907-.291.372-.289-.202c-.506.063-.861.1-1.318.031l-.418.087.265.047-.588.038.289-.19q.446-.022.888-.045l.004-.156zm-1.741.38c-.001-.033.277-.04.277-.007.001.033-.278.04-.277.007m-30.578.17c.03.023-.032.037.005.055-.112-.012-.253.002-.283-.03s.21-.013.278-.024m46.995-.75c.001-.033.27-.044.27-.011.001.033-.269.044-.27.01m-2.635-.234c.049.092-.407.147-.244.244.127.074.549.126-.35.144-.074-.074-.168-.15-.248-.224.281-.055.57-.108.842-.164m-24.659.859c.425-.014.615.018.879.069a3.4 3.4 0 0 1-.881.087zM59.876 5.484c.002-.033-.273-.047-.275-.015-.002.033.273.048.275.015M16.83 2.279c.004-.033.278-.006.275.026-.003.033-.28.006-.275-.026m60.375 3.958q0-.053.006-.104l-.595-.021zm70.8-.515.002.104-.295.013q0-.053-.002-.104zm-25.1.227c.293.024.152.104.145.154.152-.02.404-.061.59-.062l.587.2-1.18.018c-.005-.052.013-.104.001-.156-.537.067-.663.105-.597.217.911 0 .864.124 1.184.243l-1.185.07-.152-.102c-.456.046.091.127-.751.115h.002l.901-.247c-.693-.118-.942.02-.9.142q-.442-.033-.862-.067c.279-.09.966-.123 1.303-.198.48-.108.345-.23.914-.327m-55.1-.096.29.014.008-.105-.29-.013q-.005.053-.007.104m73.433.221c0-.033.27-.042.27-.01.001.033-.27.043-.27.01m-47.282.535c.001-.032-.277-.038-.278-.005s.276.038.278.005m44.356-.563-.895.186-.001-.156zm-77.845-.582.143.033q.22-.066.451-.132l-.296-.016zm77.371 12.908-.003.105-.586.006q0-.053.003-.104zM18.869 2.422c.005-.032.282-.006.28.026-.003.033-.283.007-.28-.026m158.177 4.564c.017.029-.249.168-.257.135-.02-.026.244-.165.257-.135M83.509 6.39l.04-.004-.004-.001h.006c-.157-.037-.315-.073-.465-.11q.207.058.423.115m75.529 6.19c.006.032-.269.093-.275.06-.005-.032.269-.092.275-.06M6.031 1.122c.004-.032.28-.003.275.03-.004.032-.28.002-.275-.03m69.402 4.972c.002-.033-.27-.043-.274-.01-.003.032.273.043.274.01m49.676.418c0-.033.276-.038.275-.005 0 .033-.276.038-.275.005m-52.268-.859c.231.16.077.344 1.145.41-.354-.127-.511-.203-.273-.323l-.87-.087zm99.304 3.496-.016-.05q.271-.091.548-.189l-.019-.101.277-.097.328.05a86 86 0 0 1-1.118.387m2.459-1.023c.013.031-.252.132-.263.101-.011-.03.253-.131.263-.1m-33.948-2.16a5.5 5.5 0 0 0-1.166.118c-.257.05-.402-.01-.584-.031l1.032-.165zm-86.323-.901c.002-.033.283-.016.28.017-.003.032-.284.015-.28-.017m-5.275-.329-.149.017-.432-.107.148-.017zm102.465.719q.002.053.003.104l-.595.029-.003-.105zm-46.69.943-.905.02c-.301.076-.591.152-.879.229l.303-.31c.207-.008.507.014.712.005.35-.016.005-.092.328-.103zm43.168-.937c.902-.03.929.081.878.222-.624-.03-.948-.089-.878-.222m-23.19.926c.068.063-.589.134-.881.119v-.104zm-50.53-.364.292.012.006-.105-.29-.01q-.005.051-.007.103m71.935-.25.001.026-1.158.049c-.052-.073.134-.115.429-.174.241.033.469.067.728.1m-81.163-.258-.448.082.587.029q.005-.053.007-.104zm-8.477-.552c.488.028.962.125 1.287.202l-2.353-.057zm76.154 1.276c.001-.032.283-.04.283-.007.001.032-.282.04-.283.007M47.005 4.575c-.633-.125-.931-.043-1.625-.118-.29-.03-.908-.2-.723-.25l1.027.172 1.349-.116c-.008.104-.021.207-.028.312m120.937-.058.002.052-.575.03-.002-.051zm-116.824.246c.002-.032.278-.015.274.018-.002.032-.278.015-.274-.018m53.719 1.765c0-.033.282-.031.281.002s-.282.031-.281-.002m66.93-2.348v.156q-.28.01-.578.023l-.001-.157zm-19.078 1.01c-.052.072.063.267-.585.176-.034-.005-.012-.106-.287-.112-.218-.005-.659.023-.593-.045l1.172-.11zM31.792 3.28l-.011.104-.575-.152zm83.316 3.194c0-.033.274-.034.273-.001 0 .032-.273.034-.273.001m44.04-1.57q.002.052.003.104l-.293.016-.004-.104zm15.508 3.37c.012.031-.253.133-.264.101-.011-.03.253-.131.264-.1M78.119 5.983c.002-.033.282-.023.28.01-.001.032-.282.022-.28-.01m69.291-.548q0 .079.002.157l-.595.025c-.058-.049.197-.179.593-.182M39.116 3.805l-.01.103-.59-.044.01-.104zm81.436 2.387c.223-.019.481-.001.711-.012q-.503.112-1.013.222l-.098-.011c-.437-.057-.073-.158.4-.199m-27.46.167.588.01.003-.052-.589-.01zm25.267.037c0-.033.279-.035.278-.003.001.033-.278.036-.278.003M66.364 5.5c.003-.032-.273-.045-.276-.012-.002.032.274.045.276.012m72.243.381q.002.026.001.052l-.894.03V5.91zm-24.375.573-.875.004.002-.052c.37.007.55-.033.875-.056q.001.052-.002.104M55.525 4.9l-.003.052-1.178-.121.003-.052zm26.703.93c.62.077.93.159.855.286l-.29-.111-.865-.027zm25.847.606c0-.032.275-.032.275 0 0 .034-.276.033-.275 0m-56.079-1.8-.588.067q.003-.053.009-.104.29.019.58.036m73.396 1.636h.001l-.582.01.001-.103.145-.003zm-23.777-.107q-.005.13-.008.26l-.877-.008.096-.03c.199-.072.241-.141.206-.227zm-4.723.179c-.001-.033.278-.029.278.004-.002.033-.28.029-.278-.004M63.749 5.32c.002-.033.281-.019.278.014s-.28.019-.278-.014m110.976 3.123q-.018-.049-.035-.098.276-.107.555-.22l.037.098q-.28.112-.557.22m1.361-.644.13-.087c.152-.04.288-.075.445-.121l-.131.091q-.218.06-.444.117m-65.383-1.492-.002.104-.597.001q0-.053.003-.104zm53.719-1.856q.002.053.003.104l-.3.017-.003-.104zm-96.58 1.013c.001-.033.276-.02.273.012-.003.033-.276.02-.274-.012m62.11.297c.571.119 1.201.062 2.009.058.296-.002.172.098.462.115l-.878.102.15-.109q-.361-.016-.725-.034l-.011.104-.857.021c-.047-.12-.806-.14-.15-.257m23.021-.794.576.18-.86.042-.004-.208zM49.966 4.455l-.004.052-.584-.038.003-.052zm-4.85-.375c.324.086.614.042 1.034.071l-.747.053-.438-.108zM43.8 4.067c.002-.033.277-.013.273.02-.003.032-.277.012-.273-.02M76.037 5.7l-.863.045c-.066-.072.075-.14.15-.201l.043-.05c.036-.05.086-.1.408-.092q.13.149.262.298m92.479-1.448c0-.033.293-.049.293-.016.002.033-.292.048-.293.016m-22.305 1.026c-.312.03-.582.06-.871.089h-.001l-.284.168-.003-.208zm-2.604.289c.001-.033.277-.044.278-.011s-.277.044-.278.011m-80.886-.482.436.127-.592-.03.008-.104zm52.961 1.047-.723.16-.144-.024c.262-.04.329-.073.291-.132zm62.7.43.001-.002q.063-.08.137-.194c.149-.158.448-.522.306-1.095.066.168.082.37.066.52-.126.484-.352.629-.51.77m-1.013-2.243a4 4 0 0 0-.098-.29c.173.033.33.067.54.132.102.033.179.06.297.11.124.055.245.119.366.203-.489-.215-.808-.172-1.105-.155M51.42 4.547c-.6-.032-1.047-.055-1.448-.17l.435.047.57-.008zm108.126 8.321.454.007-.43.121-.422.12zm15.518-9.025q.146.111.282.223c-.559-.067-.671-.137-.599-.235zm-31.762 1.554-1.04.196-.151-.02.298-.194zm-77.93-.232.43.125-.584-.028q.001-.053.007-.104zm95.821-.557c0-.033.283-.05.284-.016.002.032-.283.048-.284.016m-48.121 1.537-.002.105h-.294l.002-.104zm-.589.055-1.183.054.002-.104c.464.01.783-.015 1.183-.055zm-58.11-1.733-.012.156-.745.007-.146-.035.608-.146zm-1.491.014q-.003.053-.01.104l-.569-.14q.289.02.579.036M178.188 6.97c-.539.421-1.242.612-.509.17.231-.147.62-.299.509-.17m-70.405-.768-.002.053-.584-.002.001-.052zm-26.718-.407-.003.052-.584-.018.003-.052zm-32.26-1.519q0 .027-.003.052l-.587-.038.004-.052zm98.749.945.443.085-.589.026-.001-.104zm-22.301.69c.826.087 1.532-.04 2.483-.047l-.747.164-1.884-.01zm20.953 9.952-.288.061q.008.052.019.103l.287-.062q-.008-.051-.018-.103M93.7 5.926l-1.177-.049.287.215-1.182-.076c-.111-.239.614-.258 1.786-.278zM177.1 7.812c-.564.248-.972.43-1.565.635-.59.201-.858.263-.78.097h.002c.523-.192.807-.174 1.367-.401.569-.233.859-.477.976-.331m-89.566-1.86c0-.034.278-.027.276.006 0 .033-.278.026-.276-.007m69.527-1.144-.283.015c-.055-.096.018-.172.563-.239h.002c-.102.075-.187.15-.282.224m-24.331 1.014c-.001-.032.283-.04.283-.007.001.032-.283.04-.283.007M83.692 5.77q-.001.051-.005.104l-.591-.018q.001-.053.005-.104zM9 .913c.006-.032.277-.004.273.028C9.27.974 8.994.945 9 .913m90.574 5.205c0-.033.28-.03.279.003 0 .033-.28.03-.279-.003m20.402-.335c.316-.027.34.039.625.035.51-.008.938-.007.521.104l-1.297-.089.865.25-1.159-.09q-.002.053-.001.104h-.001l-.585.007q-.001-.053.002-.104l.585-.007c-.056-.075.021-.174.445-.21m21.834-.33v.053l-1.157.042-.001-.104c.389.003.751.008 1.158.01m-2.606.138c-.115-.02.608-.162.863-.118.115.02-.604.162-.863.118m-48.917.398-.72-.068.004-.052 1.172-.026zm18.665-.15q-.154.076-.308.153l-.568.106 1.449-.103c-.718.21-1.765.2-2.317-.027l.292-.132zm41.677-.785c-.001-.033.283-.046.284-.013.002.032-.283.046-.284.013m-72.785.476q-.004.052-.007.104l-.593-.021q.002-.053.006-.104zm71.61-.421c-.002-.033.269-.045.269-.013.002.033-.268.046-.269.013m-73.092.446c.001-.033.283-.023.281.01s-.284.022-.281-.01m-2.332-.167q-.002.053-.007.104l-.875-.035h.001l.001-.026a3.4 3.4 0 0 1 .88-.043m70.445-.142.001.104h-.001l-.584-.081zm-75.585-.178c.834.05 1.082.105 1.02.254l-.584-.182-1.181-.001c-.043-.117.137-.107.745-.07m-.74.15c.001-.034.276-.021.273.012-.003.032-.276.02-.273-.013m70.751.105c-.397.08-.304.156-.294.244-.764.023-.952-.053-.893-.179zm19.944-.82-.59.136q-.002-.052-.003-.104zm-22.745.832c.785.11-.025.233-.722.335-.097-.067-.197-.134-.291-.2.217-.013.504-.004.703-.021.335-.029-.002-.091.31-.114m-25.679.738c0-.033.283-.033.282 0s-.284.033-.282 0m44.62-1.29c-.001-.032.278-.047.279-.014 0 .033-.278.048-.279.015m-48.421 1.154-.005.157-.293-.002.004-.156zM50.286 4.241c.002-.033.278-.015.275.017-.003.033-.279.015-.275-.017m-1.461-.095c.002-.033.28-.014.276.018-.002.033-.28.015-.276-.018m12.586.559c-.057.063.166.107.285.171l-.594-.031.012-.156zm22.289.908c-.2.03-.404.058-.595.087q.001-.053.005-.104zm-3.494-.16-.008.157c-.392.001-.638-.125-.578-.176zM48.243 4.057c.002-.033.28-.014.276.018-.002.033-.28.015-.276-.018m101.778.922c0-.033.286-.046.286-.013.001.033-.286.046-.286.013m-46.367.943-.584.1.003-.104zm-3.244-.079c.298.049-.364.17-.5.148-.298-.049.365-.17.5-.148m41.099-.638c.395-.029.659.08.6.134l-.885.033c.124-.063.343-.101.285-.167m-29.325.538c.48-.085.664.034.611.089h.867l.143.155-.728-.078c-.42.101-.874.032-1.47.03.276-.022.489-.18.577-.196m-29.936-.146c.001-.032.276-.024.274.009-.001.032-.276.024-.274-.009m17.032.232q0 .053-.004.104-.148 0-.296-.004 0-.051.004-.104zm-34.908-.947c.001-.032.28-.019.277.014-.002.033-.28.02-.277-.014m51.028.992v.052l-.577.004v-.052zm41.084-1.4.003.105-.288.015-.003-.105zm-25.227 1.048c.467-.302 1.715-.16.718.087l-.323-.1zm-4.411.107c.263-.058 1.003.043.884.07-.262.059-1.007-.043-.884-.07m-44.302-.127c.001-.033.275-.024.272.008-.001.033-.275.025-.272-.008M146.5 4.43c.849-.034.832.112 1.486.144q.072-.082.143-.163l.871.006.998-.143c-.097.056-.187.113-.281.17 1.079-.033 2.193-.069 3.239-.103l.291.167c-.799.187-1.384.073-2.336.088l-.298.146-.886.015-.146.11c-1.073.067-.342-.143-1.3-.098l-.29.144-.443.045c-.397-.05-.788-.101-1.198-.152-.713.108-1.585.11-2.303.142-.635.027-.872.042-1.512.058h.003c-.331.009-.959.04-1.313.053-.098-.062-.202-.023-.289-.108-.083-.086.299-.104.887-.153.239-.02.48-.123.726-.154.155.06.302.126.454.189 1.244-.034 1.969.064 2.039-.237.384.002.735.006 1.144.007l.617.075zm-71.292.742-.587.082q.002-.053.007-.105zm64.423-.058.438.063-.582.099-.001-.157zm17.701-1.052c-.106.04-.191.08-.286.12.473-.008 1.006-.02 1.494-.029l-.445.233c-.991.02-1.831.029-2.774.043l-.025-.033c-.036-.065.096-.058.449-.093.402-.039.618-.083 1.007-.108-.002-.034.006-.069.008-.103zm-33.984 1.359-.006.075-.884.198.302-.369zm-24.945.317c0-.033.282-.029.28.004s-.282.029-.28-.004m37.263-.391-.581.017-.001-.104.146-.005zm20.217-1.47c.214.068.394.137.592.205l-.863.02a1 1 0 0 1-.016.102q-.725.065-1.476.13.155.097.306.193c-.295.015-.621.033-.89.045-.12-.091.132-.146.431-.226.19-.052-.008-.072.196-.113.203-.04.516-.03.718-.093.202-.062-.038-.104.18-.165.106-.03.673-.051.822-.097M81.091 5.327l-.003.052-.583-.019q0-.026.002-.052zm53.41-.1.001.104-.59-.088zm-6.166.102q0 .08-.001.157l-.894.019v-.157zm-8.216.137q-.002.078-.002.157c-.386.019-.635-.097-.579-.15zm-36.101-.207c.736.018 1.42.01 1.772.153-.62-.034-1.126-.097-1.776-.101l.002-.052zm48.705-.035v.104l-.3.008v-.104zm-3.208.027q.733-.042 1.454-.087v.209l-2.042-.056.295-.268zm43.445-1.863c.001-.033-.285-.026-.285.007.001.033.287.026.285-.007m-24.971 1.344.293-.013q-.002-.052-.003-.104l-.292.013q0 .053.002.104m-22.581.733c.001-.032.274-.037.274-.005.001.033-.275.038-.274.005m34.705 7.958c.007.032.273-.027.268-.06-.008-.032-.274.027-.268.06m7.813-9.818c-.002-.032.264-.047.264-.014.003.033-.263.047-.264.014m-26.123 1.328.75.024.149-.032-.899-.044zm-3.201-.095c1.086-.055 1.791.013 2.045.19-1.207.06-1.97.053-2.638-.118l1.183.012zm-22.01.559-.004.208-.298.002q.003-.104.003-.208zm62.228 1.648a4.3 4.3 0 0 1-.687.54q.028.045.054.089c.221-.147.43-.287.703-.551a1 1 0 0 0-.07-.078m-51.679-1.69-.001.051-.586.012.001-.052zm32.119 8.31c.006.033.278-.027.271-.06-.005-.032-.278.028-.271.06m5.473-1.164q-.01-.052-.021-.102l-.578.136h.454zm-71.3-7.047c.002-.033.279-.028.278.005 0 .033-.28.028-.278-.005m21.974.003q0 .053-.001.104l-.866.006.002-.105zm-6.154-.008-.293.13h-.579l.728-.156zm-57.76-1.653c.004-.033.278-.015.275.017-.003.033-.278.016-.274-.017m120.53-.616-.276.167q-.424-.024-.887-.043c.353-.09.676-.115 1.163-.124m-4.103.252c.225-.066.998.01.874.041-.292.068-.985-.011-.874-.041m-46.354 1.808-.002.208c-.203-.023-.386-.047-.579-.07l.001-.053.431-.083zm52.582 4.284c.011.031.279-.068.269-.1-.011-.03-.279.069-.269.1m-37.03-4.507c-.001-.033.284-.042.284-.009.001.033-.285.042-.284.01m-24.616.35q-.001.078-.004.156l-.586-.077.443-.08zm19.622-.388q.15.1.3.2l-.592.016.001-.209zm-26.665.329c.461-.011 1.233.067 1.468.136-.339.073-.657.085-1.178.074zm22.877-.291.295.254c-.637-.044-.963-.11-.889-.241zm20.226-.492c-.001-.033-.275-.021-.276.012.001.033.277.02.276-.012m13.323 8.794c-.012-.05-.019-.102-.03-.154l.286-.064q.016.076.03.154-.142.03-.286.064M39.507 2.919c.003-.033.281-.012.278.021s-.282.012-.278-.02m105.09 1.542c.44-.078.556-.021 1.014-.044h.002c-.487.16-1.297.113-1.148.308-.193-.036-.39-.07-.582-.108.226-.044.496-.118.714-.156m-25.933.864-.002.104-.293.003q-.001-.053.001-.104zM163.796 3.6q.002.051.003.104c-.201.01-.419.024-.596.034.134-.043.287-.086.44-.13zm-50.124 1.813v.052l-.878.004q0-.027.002-.052zm-26.398-.277-1.474.067.008-.157zm-2.649-.122q-.002.078-.008.156a3.4 3.4 0 0 1-.887-.103c.273-.046.47-.074.895-.053m25.81.434c0-.033.283-.033.282 0 0 .032-.283.032-.282 0m-2.339-.08-.585.103.002-.104zm66.401-2.248-.46.073-.161-.026.475-.075zM73.782 4.7l-.007.104-.577-.127zm50.161.451c1.191-.025.326.153 0 .156zm38.779 7.897c.008.032-.261.093-.268.06-.006-.031.263-.093.268-.06m-19.421-8.356c.001-.032.279-.043.278-.01.001.032-.278.043-.278.01m-27.596.684c-.002-.033.284-.034.282-.002 0 .033-.285.035-.282.002m41.938-1.408c-.001-.033.285-.048.285-.015.001.033-.284.048-.285.015m-48.095 1.428c.001-.033.272-.033.274 0-.003.033-.275.033-.274 0m-26.983-.442q-.001.053-.005.104l-.29-.008q.002-.053.006-.104zm-1.156.043c.001-.033.277-.024.275.008-.002.033-.276.025-.275-.008m78.348 8.956q-.66.123-1.301.235c.115-.095.782-.333 1.279-.45.145-.035.275-.06.376-.07.335-.03-.071.192-.329.277zm8.729-10.665.001.052-.575.03q-.002-.026-.002-.052zM97.819 5.236q0 .053-.004.104l-.596-.008.452-.098zm72.712 5.766q-.015-.052-.03-.1l.281-.092.03.1zM137.718 4.84c.002-.032.283-.041.283-.009 0 .033-.283.042-.283.01m-.6.02c-.001-.033.284-.042.284-.01.001.033-.284.043-.284.01m-26.686.405q-.002.052-.002.105h-.298l.002-.105zm59.258-2.09.002.052-.59.03-.001-.053zm-49.858 2.033-.001.052-.582.006v-.051zm49.895 6.059-.015-.05c.155-.053.34-.114.531-.177q.008.025.015.05c-.19.062-.376.123-.531.177m-89.19-6.48-.007.104-.292-.01q.002-.053.006-.104zm89.715-1.743q.002.051.003.104l-.279.013q-.002-.053-.003-.104.141-.008.279-.013m-6.345 9.89c.006.033-.266.096-.272.064-.008-.032.264-.095.272-.063M136.815 4.74l-.86.08q-.002-.053-.001-.105l.86-.079zm-48.952.308-.584-.014.444-.094.145.004zm44.261-.173-.001.052-.577.015v-.052zm14.373-.65c.713-.042 1.174-.03 1.191.104-.7.04-1.175.029-1.191-.105m21.409-1.115.003.105-.576-.073zm-45.738 1.913q.001.051-.001.104l-.599.008.451-.11zm-27.846.056-.003.052-.586-.01.003-.053zm46.328-.495c.001-.032.271-.042.272-.01.001.033-.272.043-.272.01m37.749-1.187c-.013.032-.031.062-.045.094-.544-.23-1.362-.392-1.238-.444.388.07.763.137 1.283.35m-70.88 1.762-.001.053-.585-.002.002-.052zm-5.573-.136-.004.105c-.37-.014-.547.025-.875.043l.006-.156zm21.41.008-.148.028-.444-.071.149-.028zm39.416 8.273c.008.032-.262.094-.269.062s.264-.094.269-.062M65.596 4.081q-.002.052-.007.103l-.584-.028.446-.083zm93.82-.5.559-.027.002.052-.862.047-.153-.2zM89.909 4.965c0-.032.274-.027.273.006 0 .033-.275.027-.273-.006m85.771 4.363c.013.03-.264.14-.273.109-.014-.03.263-.14.273-.11m1.17-.5.135-.091c.154-.044.324-.097.48-.146l-.14.098q-.245.076-.475.138M131.547 4.68c.424.026.641.092 1.178.074l-.001.052h-.001l-1.177.03zm-21.998.377q-.001.053-.003.104l-.574-.104zm54.966 7.896c.01.031-.272.098-.274.064-.01-.03.269-.097.274-.064m-46.722-7.906c.002-.033.28-.036.279-.003.001.033-.279.036-.279.003m-30.79-.204c.002-.033.28-.026.278.007-.001.033-.279.026-.277-.007m24.327.16-.003.105h-.295q0-.053.002-.104zm59.225-2.13v.053l-.583.026-.002-.052zM121.87 4.948l-.149.028c-.149-.024-.303-.048-.443-.072l.144-.028zm-1.743-.108c.327.018.491.057.865.041l-.433.11c-.295-.044-.485-.075-.432-.151m38.108-1.27c0-.032.28-.047.281-.015.001.033-.28.049-.281.016m-4.72.17-.567.132q-.002-.052-.003-.104zm20.382-.99c.002-.033.309-.032.305.001.001.033-.304.032-.305 0m-23.894 1.238c0-.033.286-.046.286-.013.002.032-.286.046-.286.013m19.39-1.086-.147.034-.456-.056q.076-.016.152-.033zm-7.452 10.75c.009.032-.271.096-.274.063-.011-.032.269-.095.274-.062M112.51 5.002l-.587.001.002-.104h.147zm-2.36-.022c.001-.033.282-.033.281 0 0 .032-.282.033-.281 0m45.79 10.187c.009-.063.133-.134.258-.216l-.573.125.026.068-.574.21c.282-.062.579-.123.863-.187m3.708-.947c.007.032-.265.092-.272.06-.006-.032.266-.092.272-.06m6.782-11.237.001.052-.602.033-.002-.052zm-29.619 1.392.001.104-.286.01-.001-.105zm-4.97.22c0-.032.272-.04.275-.006-.004.032-.276.04-.275.006m-9.067.184c.002-.033.281-.037.28-.004.001.033-.281.037-.28.004m38.072-1.534.602-.034-.001-.052-.602.034zm-2.896 11.51c.007.031-.269.091-.275.06-.007-.033.27-.093.275-.06m3.794-11.613.872-.05-.002-.051-.872.05zm-2.92 11.473c.007.032-.268.093-.274.06-.007-.031.268-.092.274-.06m1.149-.254c.003.013-.038.03-.089.044-.076.021-.179.036-.182.016s.094-.049.172-.062c.053-.008.097-.01.099.002m-50.708-9.694c.001-.033-.273-.033-.273 0-.001.033.273.033.273 0m.885-.026h.298l.003-.105h-.299z"/></svg>