<svg xmlns="http://www.w3.org/2000/svg" width="20" height="20" fill="none" viewBox="0 0 20 20"><path fill="#fff" d="M17 5.171a8.286 8.286 0 0 0-11.39-2.61C1.814 4.963.583 10.183 3.045 14.046l.205.313-.82 3.132 3.078-.835.307.208c1.334.731 2.77 1.149 4.207 1.149a8.3 8.3 0 0 0 4.412-1.253C18.231 14.254 19.36 9.139 17 5.171m-2.155 8.04c-.41.626-.924 1.043-1.642 1.148-.41 0-.923.209-2.976-.627-1.744-.835-3.18-2.192-4.206-3.758-.616-.731-.924-1.67-1.026-2.61 0-.835.307-1.566.82-2.088q.308-.313.616-.313h.513c.205 0 .41 0 .513.417.205.522.718 1.775.718 1.88a.32.32 0 0 1 0 .417c.103.209 0 .418-.102.522-.103.104-.205.313-.308.418-.205.104-.308.313-.205.522.41.626.923 1.253 1.436 1.775.616.521 1.231.94 1.95 1.252.205.105.41.105.513-.104.102-.209.615-.73.82-.94.206-.208.308-.208.514-.104l1.641.835c.205.104.41.209.513.313.103.313.103.731-.102 1.044"/></svg>